<?xml version="1.0" encoding="UTF-8"?>
<svg version="1.1" xmlns="http://www.w3.org/2000/svg" width="218" height="148">
<path d="M0 0 C71.94 0 143.88 0 218 0 C218 48.84 218 97.68 218 148 C146.06 148 74.12 148 0 148 C0 99.16 0 50.32 0 0 Z " fill="#FDFDFD" transform="translate(0,0)"/>
<path d="M0 0 C2.72084781 0.5686029 4.94819964 0.31927576 7.71386719 0.02661133 C16.81047315 -0.76633474 25.89030571 -0.64776649 35.01464844 -0.60229492 C36.78613154 -0.59726645 38.55761603 -0.59270594 40.32910156 -0.58862305 C44.6201523 -0.57773212 48.9111345 -0.56054296 53.20214844 -0.53979492 C53.20214844 1.46020508 53.20214844 1.46020508 51.01464844 3.77661133 C50.08652344 4.66219727 49.15839844 5.5477832 48.20214844 6.46020508 C41.69196073 12.75823392 41.69196073 12.75823392 35.76464844 19.58520508 C28.26684168 27.99737851 17.13123091 34.72793446 6.20214844 37.46020508 C23.36214844 37.79020508 40.52214844 38.12020508 58.20214844 38.46020508 C58.20214844 38.79020508 58.20214844 39.12020508 58.20214844 39.46020508 C53.28420981 40.26134766 48.61334891 40.58227551 43.61450195 40.57373047 C42.89171555 40.5738765 42.16892914 40.57402252 41.42424011 40.57417297 C39.05981333 40.57348207 36.69546753 40.5657286 34.33105469 40.55786133 C32.6819615 40.55599422 31.03286775 40.5545717 29.3837738 40.55357361 C25.06180262 40.54977148 20.73986552 40.53996105 16.41790771 40.52886963 C12.00028952 40.51860579 7.58266577 40.51406537 3.16503906 40.5090332 C-5.48927338 40.49833655 -14.14355822 40.48128804 -22.79785156 40.46020508 C-21.47785156 39.80020508 -20.15785156 39.14020508 -18.79785156 38.46020508 C-51.79785156 38.13020508 -84.79785156 37.80020508 -118.79785156 37.46020508 C-118.79785156 38.12020508 -118.79785156 38.78020508 -118.79785156 39.46020508 C-91.40785156 39.46020508 -64.01785156 39.46020508 -35.79785156 39.46020508 C-35.79785156 39.79020508 -35.79785156 40.12020508 -35.79785156 40.46020508 C-70.77785156 40.46020508 -105.75785156 40.46020508 -141.79785156 40.46020508 C-140.80785156 39.96520508 -140.80785156 39.96520508 -139.79785156 39.46020508 C-140.12785156 37.81020508 -140.45785156 36.16020508 -140.79785156 34.46020508 C-141.45785156 34.46020508 -142.11785156 34.46020508 -142.79785156 34.46020508 C-142.98535156 31.58520508 -142.98535156 31.58520508 -142.79785156 28.46020508 C-139.79785156 26.46020508 -139.79785156 26.46020508 -137.36035156 26.52270508 C-134.79785156 27.46020508 -134.79785156 27.46020508 -133.34472656 29.98754883 C-129.87297843 33.35812639 -127.53827606 33.0544901 -122.83081055 33.05297852 C-121.72680908 33.02236328 -120.62280762 32.99174805 -119.48535156 32.96020508 C-118.31109619 32.94248047 -117.13684082 32.92475586 -115.92700195 32.90649414 C-90.6265222 32.3279746 -65.39026614 29.72521094 -40.29302979 26.60778809 C-33.65369415 25.78346306 -27.02869793 25.11211866 -20.36035156 24.58520508 C-8.94942287 23.64825487 2.30260269 21.50224072 13.56323242 19.49194336 C14.30922195 19.35919006 15.05521149 19.22643677 15.82380676 19.08966064 C17.23704815 18.83714509 18.64982658 18.58202046 20.0620575 18.32391357 C22.82747492 17.82745234 25.3846941 17.46020508 28.20214844 17.46020508 C28.20214844 16.80020508 28.20214844 16.14020508 28.20214844 15.46020508 C26.51992188 15.80631836 26.51992188 15.80631836 24.80371094 16.15942383 C-19.73333422 25.10788943 -65.4588143 29.7910688 -110.79785156 31.96020508 C-112.16911697 32.02949722 -112.16911697 32.02949722 -113.56808472 32.10018921 C-116.10265676 32.22363714 -118.63720315 32.33038922 -121.17285156 32.42895508 C-122.27935814 32.48144157 -122.27935814 32.48144157 -123.40821838 32.5349884 C-127.14884806 32.65224803 -128.58831973 32.59989296 -131.79785156 30.46020508 C-131.79785156 29.80020508 -131.79785156 29.14020508 -131.79785156 28.46020508 C-110.34785156 26.81020508 -88.89785156 25.16020508 -66.79785156 23.46020508 C-71.52097656 23.76958008 -76.24410156 24.07895508 -81.11035156 24.39770508 C-98.99584859 25.52351211 -116.88315987 26.06011301 -134.79785156 26.46020508 C-135.45785156 24.81020508 -136.11785156 23.16020508 -136.79785156 21.46020508 C-135.75185791 21.30092529 -134.70586426 21.14164551 -133.62817383 20.97753906 C-117.73101204 18.52669147 -101.90360561 15.68996519 -86.06860352 12.86962891 C-69.01051544 9.83482431 -51.93535745 7.01059633 -34.79785156 4.46020508 C-34.79785156 3.80020508 -34.79785156 3.14020508 -34.79785156 2.46020508 C-6.66101851 -1.99993372 -6.66101851 -1.99993372 0 0 Z " fill="#0B0D0E" transform="translate(154.7978515625,58.539794921875)"/>
<path d="M0 0 C0.82975342 -0.00539795 1.65950684 -0.0107959 2.5144043 -0.01635742 C8.4879332 0.05445547 8.4879332 0.05445547 11.875 2.3125 C10.885 2.6425 9.895 2.9725 8.875 3.3125 C13.92970694 6.87048852 17.69820509 8.80827184 23.875 9.3125 C24.205 9.6425 24.535 9.9725 24.875 10.3125 C27.72685933 10.43865464 30.55309228 10.50121649 33.40625 10.515625 C34.27133179 10.52132507 35.13641357 10.52702515 36.02770996 10.53289795 C37.86709362 10.54236908 39.70649441 10.54889027 41.54589844 10.55273438 C44.33559857 10.56236399 47.12453791 10.59333459 49.9140625 10.625 C51.70312064 10.63153761 53.49218404 10.63678509 55.28125 10.640625 C56.51929382 10.6591452 56.51929382 10.6591452 57.78234863 10.67803955 C64.6214844 10.65228433 70.34474227 8.99357511 76.5 6.0625 C79.82432917 5.01271184 82.502228 5.65117216 85.875 6.3125 C85.875 8.2925 85.875 10.2725 85.875 12.3125 C87.525 12.9725 89.175 13.6325 90.875 14.3125 C90.875 14.9725 90.875 15.6325 90.875 16.3125 C86.44130991 17.39356757 82.06971195 17.51317144 77.53125 17.59375 C76.72570679 17.61215942 75.92016357 17.63056885 75.09020996 17.64953613 C72.51854457 17.70803106 69.94681137 17.76085139 67.375 17.8125 C57.40113087 18.01616488 47.47856885 18.24698025 37.53417969 19.09863281 C34.25864658 19.36207084 31.03575541 19.44573498 27.75 19.4375 C26.16832031 19.44136719 26.16832031 19.44136719 24.5546875 19.4453125 C21.875 19.3125 21.875 19.3125 18.875 18.3125 C16.12010752 18.55933383 13.42260419 18.8654133 10.6875 19.25 C9.56311523 19.39985352 9.56311523 19.39985352 8.41601562 19.55273438 C6.56818518 19.79989641 4.7214734 20.05539611 2.875 20.3125 C2.875 20.9725 2.875 21.6325 2.875 22.3125 C2.28144211 22.40748779 1.68788422 22.50247559 1.07633972 22.6003418 C-6.59626886 23.82954218 -14.26723626 25.06875594 -21.9375 26.3125 C-23.17340881 26.51269745 -24.40931763 26.7128949 -25.68267822 26.91915894 C-44.45623009 29.96838965 -63.16994233 33.24823451 -81.83129883 36.92382812 C-82.66894272 37.085681 -83.50658661 37.24753387 -84.36961365 37.41429138 C-85.89914114 37.70992087 -87.42744723 38.01199646 -88.95399475 38.32264709 C-94.07656612 39.30602257 -98.90852193 39.42999401 -104.125 39.3125 C-103.465 40.9625 -102.805 42.6125 -102.125 44.3125 C-101.51533386 44.24611328 -100.90566772 44.17972656 -100.27752686 44.11132812 C-94.3371274 43.48750579 -88.41971473 43.06944776 -82.453125 42.8125 C-81.56824402 42.77189453 -80.68336304 42.73128906 -79.77166748 42.68945312 C-76.97288668 42.5612581 -74.17396717 42.43655395 -71.375 42.3125 C-67.69260516 42.14803854 -64.01031008 41.98159407 -60.328125 41.8125 C-59.4419046 41.77192978 -58.5556842 41.73135956 -57.64260864 41.68955994 C-51.40603805 41.39524062 -45.18862324 40.97584524 -38.96289062 40.50439453 C-35.54383674 40.27320248 -32.17611199 40.21193209 -28.75 40.25 C-27.66976562 40.25902344 -26.58953125 40.26804688 -25.4765625 40.27734375 C-24.70054688 40.28894531 -23.92453125 40.30054688 -23.125 40.3125 C-23.125 40.6425 -23.125 40.9725 -23.125 41.3125 C-30.96644841 41.97124055 -38.80839959 42.62361474 -46.65101814 43.26825714 C-50.29413521 43.5679046 -53.93705676 43.86959826 -57.57958984 44.17626953 C-61.10646462 44.47312249 -64.63377557 44.76420724 -68.16143417 45.05158997 C-70.13659975 45.21392453 -72.11129415 45.38196064 -74.08596802 45.5501709 C-82.46463444 46.22644591 -90.72124746 46.4398403 -99.125 46.3125 C-96.84343761 48.93652874 -96.45452577 49.28770395 -92.7734375 49.56469727 C-91.34831807 49.51985454 -89.92371762 49.45639429 -88.5 49.37890625 C-87.71099808 49.34685593 -86.92199615 49.3148056 -86.10908508 49.28178406 C-83.4464311 49.16543174 -80.78612504 49.0220769 -78.125 48.875 C-76.73177017 48.80424255 -76.73177017 48.80424255 -75.31039429 48.73205566 C-36.77090421 46.74559722 1.72550655 42.47360605 39.80879211 36.27154541 C46.81197031 35.1388526 53.83798721 34.20914749 60.875 33.3125 C60.875 33.9725 60.875 34.6325 60.875 35.3125 C21.63636061 42.99673355 21.63636061 42.99673355 3.70507812 44.52392578 C-2.0889106 45.01741673 -7.86634465 45.6002553 -13.64453125 46.25 C-32.77797598 48.40005508 -51.88096144 50.44434788 -71.125 51.3125 C-72.37249023 51.36986328 -73.61998047 51.42722656 -74.90527344 51.48632812 C-78.64535907 51.63673116 -82.38275611 51.73496663 -86.125 51.8125 C-87.25953613 51.85536133 -88.39407227 51.89822266 -89.56298828 51.94238281 C-97.17485229 52.00535825 -97.17485229 52.00535825 -99.8425293 50.06005859 C-101.13671875 48.4921875 -101.13671875 48.4921875 -103.125 45.3125 C-104.36163617 44.15001416 -105.62734486 43.01645129 -106.9375 41.9375 C-107.54207031 41.43476562 -108.14664063 40.93203125 -108.76953125 40.4140625 C-109.21683594 40.05054688 -109.66414063 39.68703125 -110.125 39.3125 C-109.135 38.8175 -109.135 38.8175 -108.125 38.3125 C-107.83625 37.508125 -107.5475 36.70375 -107.25 35.875 C-106.125 33.3125 -106.125 33.3125 -104.1875 32 C-102.125 31.3125 -102.125 31.3125 -99.125 31.3125 C-99.17140625 30.49265625 -99.2178125 29.6728125 -99.265625 28.828125 C-99.30171875 27.75046875 -99.3378125 26.6728125 -99.375 25.5625 C-99.42140625 24.49515625 -99.4678125 23.4278125 -99.515625 22.328125 C-99.125 19.3125 -99.125 19.3125 -97.41796875 16.98046875 C-93.62068145 14.21821717 -89.72738965 14.09476868 -85.125 14.3125 C-82.375 15.6875 -82.375 15.6875 -80.125 17.3125 C-76.93104974 18.02651232 -76.93104974 18.02651232 -74.125 18.3125 C-73.465 20.6225 -72.805 22.9325 -72.125 25.3125 C-68.33196275 24.31056563 -65.40963659 23.50225773 -62.125 21.3125 C-60.805 21.3125 -59.485 21.3125 -58.125 21.3125 C-58.125 20.6525 -58.125 19.9925 -58.125 19.3125 C-55.62898058 18.06449029 -53.78705317 18.20651548 -51 18.125 C-45.6433914 17.71024947 -42.76934973 16.20243536 -38.78125 12.6875 C-37.125 11.3125 -37.125 11.3125 -34.125 10.3125 C-32.9803125 9.384375 -32.9803125 9.384375 -31.8125 8.4375 C-22.6350386 1.18090261 -11.34513952 0.04625401 0 0 Z " fill="#F7F7F7" transform="translate(122.125,40.6875)"/>
<path d="M0 0 C-0.33 0.66 -0.66 1.32 -1 2 C3.18590238 4.09295119 5.47730111 3.79812333 10 3 C11.42096415 3.12483236 12.838623 3.29327028 14.25 3.5 C17.80544468 4.33123658 17.80544468 4.33123658 20 3 C23.60800898 3.14802088 27.19179097 3.40282436 30.79101562 3.68359375 C34.19124701 3.9237479 36.73222258 4.08925914 40 3 C40.99 3.495 40.99 3.495 42 4 C43.92297224 3.86403146 43.92297224 3.86403146 46 3.5 C49.77777778 2.88888889 49.77777778 2.88888889 52 4 C55.6081916 4.03095262 59.20549459 3.93223631 62.8125 3.83984375 C66 4 66 4 68 6 C67.34 6 66.68 6 66 6 C66 6.66 66 7.32 66 8 C67.98 8.495 67.98 8.495 70 9 C69.34773437 8.96519531 68.69546875 8.93039063 68.0234375 8.89453125 C67.14945313 8.86746094 66.27546875 8.84039062 65.375 8.8125 C64.51648438 8.77769531 63.65796875 8.74289063 62.7734375 8.70703125 C59.89312852 8.84139188 59.89312852 8.84139188 57.21459961 10.44042969 C53.96603724 12.01647711 51.34378391 12.68085311 47.79296875 13.24609375 C46.58455322 13.44146729 45.3761377 13.63684082 44.13110352 13.83813477 C42.82971436 14.03592529 41.5283252 14.23371582 40.1875 14.4375 C38.80069014 14.65350202 37.41389022 14.8695678 36.02709961 15.08569336 C21.47651843 17.3240284 6.87599322 19.13229104 -7.75518799 20.75067139 C-10.05707409 21.00633915 -12.35838004 21.26683908 -14.65966797 21.52783203 C-34.34896314 23.74626437 -54.02099173 25.39831516 -73.8125 26.375 C-74.76026306 26.42464905 -75.70802612 26.4742981 -76.68450928 26.52545166 C-79.35828467 26.66223155 -82.03224384 26.78335845 -84.70703125 26.8984375 C-85.50507675 26.93978821 -86.30312225 26.98113892 -87.12535095 27.02374268 C-91.0095714 27.16919452 -92.67823136 27.21451243 -96 25 C-96 24.34 -96 23.68 -96 23 C-74.55 21.35 -53.1 19.7 -31 18 C-35.723125 18.309375 -40.44625 18.61875 -45.3125 18.9375 C-63.19799702 20.06330703 -81.08530831 20.59990793 -99 21 C-99.66 19.35 -100.32 17.7 -101 16 C-99.95908203 15.84144531 -98.91816406 15.68289062 -97.84570312 15.51953125 C-83.02489045 13.23409849 -68.26519477 10.6172483 -53.5 8 C-25.41497082 3.02170503 -25.41497082 3.02170503 -14.09375 1.1875 C-12.97401794 1.0016333 -12.97401794 1.0016333 -11.83166504 0.81201172 C-7.84813265 0.1805243 -4.03220749 -0.11998738 0 0 Z " fill="#030508" transform="translate(119,64)"/>
<path d="M0 0 C-15.54394943 4.16514038 -31.15586329 7.17068987 -47 10 C-37.1 10 -27.2 10 -17 10 C-20.38141666 12.25427777 -22.44510035 12.49245317 -26.4375 13 C-30.84100069 13.47660401 -30.84100069 13.47660401 -34.91872787 15.02249718 C-37.290489 16.13643282 -38.82188135 16.23403525 -41.42926025 16.20254517 C-42.75011627 16.19404793 -42.75011627 16.19404793 -44.09765625 16.18537903 C-45.5347998 16.16056709 -45.5347998 16.16056709 -47.00097656 16.13525391 C-48.01593201 16.12579239 -49.03088745 16.11633087 -50.07659912 16.10658264 C-53.43145764 16.07290422 -56.78594666 16.02478851 -60.140625 15.9765625 C-62.46660395 15.95039549 -64.79259318 15.92512847 -67.11859131 15.90072632 C-73.24089573 15.83407447 -79.36298389 15.75518149 -85.48510742 15.67376709 C-91.73217467 15.5928481 -97.97936879 15.52346727 -104.2265625 15.453125 C-116.48452708 15.31339691 -128.74229422 15.16074085 -141 15 C-141 15.66 -141 16.32 -141 17 C-113.61 17 -86.22 17 -58 17 C-58 17.33 -58 17.66 -58 18 C-92.98 18 -127.96 18 -164 18 C-163.34 17.67 -162.68 17.34 -162 17 C-162.33 15.35 -162.66 13.7 -163 12 C-163.66 12 -164.32 12 -165 12 C-165.1875 9.125 -165.1875 9.125 -165 6 C-162 4 -162 4 -159.5625 4.0625 C-157 5 -157 5 -155.625 7.53515625 C-151.89949406 11.03336198 -148.97857372 10.53931269 -144.0090332 10.49023438 C-142.24112427 10.43319336 -142.24112427 10.43319336 -140.4375 10.375 C-138.63575317 10.3450293 -138.63575317 10.3450293 -136.79760742 10.31445312 C-126.85493766 10.11839488 -116.92121988 9.67672145 -107 9 C-107 9.33 -107 9.66 -107 10 C-75.1044146 11.06395004 -43.6905345 7.96698997 -12.57714844 0.79248047 C-11.49336914 0.54385254 -10.40958984 0.29522461 -9.29296875 0.0390625 C-8.3599292 -0.18571777 -7.42688965 -0.41049805 -6.46557617 -0.64208984 C-3.94870854 -1.00744562 -2.38797887 -0.80821751 0 0 Z " fill="#626262" transform="translate(177,81)"/>
<path d="M0 0 C0.82975342 -0.00539795 1.65950684 -0.0107959 2.5144043 -0.01635742 C8.4879332 0.05445547 8.4879332 0.05445547 11.875 2.3125 C10.885 2.6425 9.895 2.9725 8.875 3.3125 C13.92970694 6.87048852 17.69820509 8.80827184 23.875 9.3125 C24.37 9.8075 24.37 9.8075 24.875 10.3125 C27.72685933 10.43865464 30.55309228 10.50121649 33.40625 10.515625 C34.27133179 10.52132507 35.13641357 10.52702515 36.02770996 10.53289795 C37.86709362 10.54236908 39.70649441 10.54889027 41.54589844 10.55273438 C44.33559857 10.56236399 47.12453791 10.59333459 49.9140625 10.625 C51.70312064 10.63153761 53.49218404 10.63678509 55.28125 10.640625 C56.10661255 10.6529718 56.9319751 10.6653186 57.78234863 10.67803955 C64.6214844 10.65228433 70.34474227 8.99357511 76.5 6.0625 C79.82432917 5.01271184 82.502228 5.65117216 85.875 6.3125 C85.875 8.2925 85.875 10.2725 85.875 12.3125 C87.525 12.9725 89.175 13.6325 90.875 14.3125 C90.875 14.9725 90.875 15.6325 90.875 16.3125 C86.10806208 17.50241133 81.39947183 17.55194642 76.515625 17.6640625 C75.61181091 17.68721527 74.70799683 17.71036804 73.77679443 17.73422241 C71.86720087 17.78174512 69.95754952 17.8269929 68.04785156 17.87011719 C65.14883887 17.93695042 62.25027019 18.01490042 59.3515625 18.09375 C57.48959958 18.13869891 55.62762066 18.18299074 53.765625 18.2265625 C52.90906311 18.25046051 52.05250122 18.27435852 51.16998291 18.29898071 C45.64129297 18.41215447 40.36001491 18.02658685 34.875 17.3125 C34.875 16.9825 34.875 16.6525 34.875 16.3125 C46.755 15.3225 58.635 14.3325 70.875 13.3125 C64.29536489 13.28938653 57.71587402 13.26952092 51.13623047 13.25756836 C48.9038037 13.2525788 46.67138014 13.24578478 44.43896484 13.23706055 C28.03535997 13.14548535 28.03535997 13.14548535 11.66723633 14.08374023 C0.04519933 15.03589978 0.04519933 15.03589978 -5.125 13.3125 C-7.27611288 13.35683655 -7.27611288 13.35683655 -9.6171875 13.65234375 C-10.48730469 13.74580078 -11.35742188 13.83925781 -12.25390625 13.93554688 C-13.16011719 14.03931641 -14.06632812 14.14308594 -15 14.25 C-16.78880994 14.44889924 -18.57786796 14.64558232 -20.3671875 14.83984375 C-21.1597998 14.92999756 -21.95241211 15.02015137 -22.76904297 15.11303711 C-25.23208203 15.32156591 -27.65434865 15.34563554 -30.125 15.3125 C-27.22228639 13.72125338 -24.60502037 12.86635007 -21.359375 12.2421875 C-20.46992187 12.06816406 -19.58046875 11.89414062 -18.6640625 11.71484375 C-17.74367187 11.54082031 -16.82328125 11.36679687 -15.875 11.1875 C-14.93914062 11.00574219 -14.00328125 10.82398438 -13.0390625 10.63671875 C-10.73533115 10.19007696 -8.4306957 9.7488672 -6.125 9.3125 C-10.01017394 6.37909356 -10.01017394 6.37909356 -14.5546875 4.8515625 C-18.11461972 5.4899698 -21.08738642 7.00965027 -24.25 8.6875 C-24.87003906 9.00460938 -25.49007812 9.32171875 -26.12890625 9.6484375 C-28.90468153 11.08109571 -31.52342841 12.57811894 -34.125 14.3125 C-33.135 14.9725 -32.145 15.6325 -31.125 16.3125 C-34.095 16.6425 -37.065 16.9725 -40.125 17.3125 C-40.125 17.9725 -40.125 18.6325 -40.125 19.3125 C-38.805 19.6425 -37.485 19.9725 -36.125 20.3125 C-37.0325 20.27125 -37.94 20.23 -38.875 20.1875 C-42.00643035 20.07785098 -42.00643035 20.07785098 -44.0625 21.3125 C-47.07297252 22.77212304 -49.83350734 22.43909587 -53.125 22.3125 C-53.455 21.3225 -53.785 20.3325 -54.125 19.3125 C-52.4234375 19.2815625 -52.4234375 19.2815625 -50.6875 19.25 C-45.71175268 18.67451321 -42.81007987 16.10598491 -39.10546875 12.90625 C-37.125 11.3125 -37.125 11.3125 -34.125 10.3125 C-33.361875 9.69375 -32.59875 9.075 -31.8125 8.4375 C-22.6350386 1.18090261 -11.34513952 0.04625401 0 0 Z " fill="#929292" transform="translate(122.125,40.6875)"/>
<path d="M0 0 C0 0.33 0 0.66 0 1 C-0.89033684 1.14248169 -0.89033684 1.14248169 -1.79866028 1.2878418 C-9.47126886 2.51704218 -17.14223626 3.75625594 -24.8125 5 C-26.04840881 5.20019745 -27.28431763 5.4003949 -28.55767822 5.60665894 C-47.33123009 8.65588965 -66.04494233 11.93573451 -84.70629883 15.61132812 C-85.54394272 15.773181 -86.38158661 15.93503387 -87.24461365 16.10179138 C-88.77414114 16.39742087 -90.30244723 16.69949646 -91.82899475 17.01014709 C-96.95156612 17.99352257 -101.78352193 18.11749401 -107 18 C-106.34 19.65 -105.68 21.3 -105 23 C-104.39033386 22.93361328 -103.78066772 22.86722656 -103.15252686 22.79882812 C-97.2121274 22.17500579 -91.29471473 21.75694776 -85.328125 21.5 C-84.44324402 21.45939453 -83.55836304 21.41878906 -82.64666748 21.37695312 C-79.84788668 21.2487581 -77.04896717 21.12405395 -74.25 21 C-70.56760516 20.83553854 -66.88531008 20.66909407 -63.203125 20.5 C-62.3169046 20.45942978 -61.4306842 20.41885956 -60.51760864 20.37705994 C-54.28103805 20.08274062 -48.06362324 19.66334524 -41.83789062 19.19189453 C-38.41883674 18.96070248 -35.05111199 18.89943209 -31.625 18.9375 C-30.54476562 18.94652344 -29.46453125 18.95554687 -28.3515625 18.96484375 C-27.57554688 18.97644531 -26.79953125 18.98804687 -26 19 C-26 19.33 -26 19.66 -26 20 C-33.84144841 20.65874055 -41.68339959 21.31111474 -49.52601814 21.95575714 C-53.16913521 22.2554046 -56.81205676 22.55709826 -60.45458984 22.86376953 C-63.98146462 23.16062249 -67.50877557 23.45170724 -71.03643417 23.73908997 C-73.01159975 23.90142453 -74.98629415 24.06946064 -76.96096802 24.2376709 C-85.33963444 24.91394591 -93.59624746 25.1273403 -102 25 C-99.71843761 27.62402874 -99.32952577 27.97520395 -95.6484375 28.25219727 C-94.22331807 28.20735454 -92.79871762 28.14389429 -91.375 28.06640625 C-90.19149712 28.01833076 -90.19149712 28.01833076 -88.98408508 27.96928406 C-86.3214311 27.85293174 -83.66112504 27.7095769 -81 27.5625 C-79.60677017 27.49174255 -79.60677017 27.49174255 -78.18539429 27.41955566 C-39.64590421 25.43309722 -1.14949345 21.16110605 36.93379211 14.95904541 C43.93697031 13.8263526 50.96298721 12.89664749 58 12 C58 12.66 58 13.32 58 14 C18.76136061 21.68423355 18.76136061 21.68423355 0.83007812 23.21142578 C-4.9639106 23.70491673 -10.74134465 24.2877553 -16.51953125 24.9375 C-35.65297598 27.08755508 -54.75596144 29.13184788 -74 30 C-75.24749023 30.05736328 -76.49498047 30.11472656 -77.78027344 30.17382812 C-81.52035907 30.32423116 -85.25775611 30.42246663 -89 30.5 C-90.13453613 30.54286133 -91.26907227 30.58572266 -92.43798828 30.62988281 C-100.04985229 30.69285825 -100.04985229 30.69285825 -102.7175293 28.74755859 C-104.01171875 27.1796875 -104.01171875 27.1796875 -106 24 C-107.23663617 22.83751416 -108.50234486 21.70395129 -109.8125 20.625 C-110.41707031 20.12226562 -111.02164063 19.61953125 -111.64453125 19.1015625 C-112.09183594 18.73804687 -112.53914063 18.37453125 -113 18 C-109.99382731 14.99382731 -107.17618402 15.40414684 -103 15 C-103 14.34 -103 13.68 -103 13 C-102.236875 13.020625 -101.47375 13.04125 -100.6875 13.0625 C-97.89814214 13.12942841 -97.89814214 13.12942841 -95 12 C-93.37964844 12.00966797 -93.37964844 12.00966797 -91.7265625 12.01953125 C-88.04269411 12.00022376 -84.96138788 11.49134556 -81.375 10.6875 C-75.15503394 9.35362931 -68.92641112 8.36514688 -62.625 7.5 C-55.8454534 6.55371529 -49.06861405 5.60291994 -42.3125 4.5 C-41.24346436 4.34047852 -41.24346436 4.34047852 -40.15283203 4.17773438 C-37.95874568 3.83833431 -37.95874568 3.83833431 -35 3 C-34.34 2.01 -33.68 1.02 -33 0 C-31.68 0 -30.36 0 -29 0 C-29 0.66 -29 1.32 -29 2 C-28.44127197 1.90388428 -27.88254395 1.80776855 -27.30688477 1.70874023 C-24.72737774 1.27238849 -22.14514215 0.8548783 -19.5625 0.4375 C-18.68400391 0.28603516 -17.80550781 0.13457031 -16.90039062 -0.02148438 C-10.97527936 -0.96163118 -5.93364758 -0.91147587 0 0 Z " fill="#BDBDBD" transform="translate(125,62)"/>
<path d="M0 0 C34.32 0 68.64 0 104 0 C102.68 0.66 101.36 1.32 100 2 C130.69 2.495 130.69 2.495 162 3 C161.67 3.99 161.34 4.98 161 6 C121.07 6 81.14 6 40 6 C40 5.34 40 4.68 40 4 C16.24 4 -7.52 4 -32 4 C-31.67 3.34 -31.34 2.68 -31 2 C-20.77 2 -10.54 2 0 2 C0 1.34 0 0.68 0 0 Z " fill="#9C9C9C" transform="translate(36,96)"/>
<path d="M0 0 C0.10234659 9.06335876 0.06996173 17.98175113 -1 27 C-1.33 27 -1.66 27 -2 27 C-2.33 20.4 -2.66 13.8 -3 7 C-3.71027344 8.92585938 -4.42054688 10.85171875 -5.15234375 12.8359375 C-5.84065664 14.69924915 -6.52897755 16.56255785 -7.2175293 18.42578125 C-7.69613104 19.72152772 -8.17432357 21.01742541 -8.65209961 22.31347656 C-9.33860592 24.17552692 -10.02670252 26.03699072 -10.71484375 27.8984375 C-11.12855225 29.01911621 -11.54226074 30.13979492 -11.96850586 31.29443359 C-13 34 -13 34 -14 36 C-7.73 36 -1.46 36 5 36 C4.505 36.99 4.505 36.99 4 38 C-13.82 37.67 -31.64 37.34 -50 37 C-47.51246124 34.51246124 -45.3903027 34.00669034 -42.0625 32.875 C-35.10790431 30.27471975 -29.74760246 26.63608265 -24 22 C-23.41605469 21.5565625 -22.83210938 21.113125 -22.23046875 20.65625 C-17.07761271 16.63185584 -13.07040504 11.46003846 -8.8828125 6.484375 C-8.17898437 5.66453125 -7.47515625 4.8446875 -6.75 4 C-6.10546875 3.236875 -5.4609375 2.47375 -4.796875 1.6875 C-3 0 -3 0 0 0 Z " fill="#F2F2F2" transform="translate(209,60)"/>
<path d="M0 0 C1.9896995 0.39013716 3.99019869 0.73202649 6 1 C6.66 3.31 7.32 5.62 8 8 C11.79303725 6.99806563 14.71536341 6.18975773 18 4 C19.32 4 20.64 4 22 4 C22 3.34 22 2.68 22 2 C23.32 2.66 24.64 3.32 26 4 C25.67 4.66 25.34 5.32 25 6 C22.64021302 6.75015107 20.34291924 7.37361169 17.9375 7.9375 C17.22956299 8.10934814 16.52162598 8.28119629 15.79223633 8.45825195 C9.94470881 9.84775706 4.06044034 11.00371359 -1.85766602 12.04858398 C-4.66733973 12.54550623 -7.28684993 13.09561664 -10 14 C-12.33299825 14.03954234 -14.66708189 14.04401732 -17 14 C-19.1564482 9.68710359 -18.30284011 4.97977684 -16.9375 0.5625 C-15 -2 -15 -2 -11.625 -2.9375 C-6.74493519 -3.02163905 -4.07961501 -2.71974334 0 0 Z " fill="#7A7A7A" transform="translate(42,58)"/>
<path d="M0 0 C-1.32 0.33 -2.64 0.66 -4 1 C-3.505 2.485 -3.505 2.485 -3 4 C-33.02510655 10.09580997 -62.40342056 12.75232747 -93 12 C-92.67 11.34 -92.34 10.68 -92 10 C-89.9710083 9.54516602 -89.9710083 9.54516602 -87.26269531 9.25390625 C-86.24943176 9.14038818 -85.23616821 9.02687012 -84.19219971 8.90991211 C-83.08205505 8.79526611 -81.9719104 8.68062012 -80.828125 8.5625 C-79.68075867 8.43689697 -78.53339233 8.31129395 -77.35125732 8.18188477 C-73.65172078 7.77921582 -69.95093093 7.38962231 -66.25 7 C-63.83064005 6.73780017 -61.41136793 6.47478857 -58.9921875 6.2109375 C-47.21810394 4.93511513 -35.44069561 3.71007002 -23.64434814 2.65722656 C-18.1666776 2.1574665 -12.77900162 1.41260448 -7.375 0.3671875 C-4.88116351 -0.01837275 -2.51943148 -0.06298579 0 0 Z " fill="#050607" transform="translate(162,80)"/>
<path d="M0 0 C0 0.33 0 0.66 0 1 C-0.89033684 1.14248169 -0.89033684 1.14248169 -1.79866028 1.2878418 C-9.47126886 2.51704218 -17.14223626 3.75625594 -24.8125 5 C-26.04840881 5.20019745 -27.28431763 5.4003949 -28.55767822 5.60665894 C-47.33123009 8.65588965 -66.04494233 11.93573451 -84.70629883 15.61132812 C-85.54394272 15.773181 -86.38158661 15.93503387 -87.24461365 16.10179138 C-88.77414114 16.39742087 -90.30244723 16.69949646 -91.82899475 17.01014709 C-96.95156612 17.99352257 -101.78352193 18.11749401 -107 18 C-106.34 19.32 -105.68 20.64 -105 22 C-105.99 22.33 -106.98 22.66 -108 23 C-109.65 21.02 -111.3 19.04 -113 17 C-109.7 16.34 -106.4 15.68 -103 15 C-103 14.34 -103 13.68 -103 13 C-102.236875 13.020625 -101.47375 13.04125 -100.6875 13.0625 C-97.89814214 13.12942841 -97.89814214 13.12942841 -95 12 C-93.37964844 12.00966797 -93.37964844 12.00966797 -91.7265625 12.01953125 C-88.04269411 12.00022376 -84.96138788 11.49134556 -81.375 10.6875 C-75.15503394 9.35362931 -68.92641112 8.36514688 -62.625 7.5 C-55.8454534 6.55371529 -49.06861405 5.60291994 -42.3125 4.5 C-41.24346436 4.34047852 -41.24346436 4.34047852 -40.15283203 4.17773438 C-37.95874568 3.83833431 -37.95874568 3.83833431 -35 3 C-34.34 2.01 -33.68 1.02 -33 0 C-31.68 0 -30.36 0 -29 0 C-29 0.66 -29 1.32 -29 2 C-28.44127197 1.90388428 -27.88254395 1.80776855 -27.30688477 1.70874023 C-24.72737774 1.27238849 -22.14514215 0.8548783 -19.5625 0.4375 C-18.68400391 0.28603516 -17.80550781 0.13457031 -16.90039062 -0.02148438 C-10.97527936 -0.96163118 -5.93364758 -0.91147587 0 0 Z " fill="#8A8A8A" transform="translate(125,62)"/>
<path d="M0 0 C2.5625 0.9375 2.5625 0.9375 4.32910156 3.4519043 C6.35396706 6.18796152 6.35396706 6.18796152 9.49511719 6.59692383 C10.60532227 6.61263428 11.71552734 6.62834473 12.859375 6.64453125 C14.06464844 6.67353516 15.26992188 6.70253906 16.51171875 6.73242188 C17.76597656 6.73822266 19.02023438 6.74402344 20.3125 6.75 C21.58222656 6.77513672 22.85195313 6.80027344 24.16015625 6.82617188 C27.29458201 6.88508965 30.42760958 6.9213375 33.5625 6.9375 C33.5625 7.2675 33.5625 7.5975 33.5625 7.9375 C31.2525 7.9375 28.9425 7.9375 26.5625 7.9375 C26.5625 8.5975 26.5625 9.2575 26.5625 9.9375 C23.9225 9.9375 21.2825 9.9375 18.5625 9.9375 C18.5625 10.9275 18.5625 11.9175 18.5625 12.9375 C45.9525 12.9375 73.3425 12.9375 101.5625 12.9375 C101.5625 13.2675 101.5625 13.5975 101.5625 13.9375 C66.5825 13.9375 31.6025 13.9375 -4.4375 13.9375 C-3.7775 13.6075 -3.1175 13.2775 -2.4375 12.9375 C-2.7675 11.2875 -3.0975 9.6375 -3.4375 7.9375 C-4.0975 7.9375 -4.7575 7.9375 -5.4375 7.9375 C-5.625 5.0625 -5.625 5.0625 -5.4375 1.9375 C-2.4375 -0.0625 -2.4375 -0.0625 0 0 Z " fill="#3C3C3C" transform="translate(17.4375,85.0625)"/>
<path d="M0 0 C2.48261687 1.48749695 4.74938284 3.18394004 7 5 C3.1961533 7.30232826 -0.93802837 7.87840421 -5.25 8.625 C-5.99507812 8.7590625 -6.74015625 8.893125 -7.5078125 9.03125 C-9.337563 9.35966676 -11.16865754 9.6805798 -13 10 C-11.99839844 9.91621094 -10.99679688 9.83242188 -9.96484375 9.74609375 C-8.62242641 9.64283088 -7.27997666 9.53998879 -5.9375 9.4375 C-4.62652344 9.33308594 -3.31554687 9.22867188 -1.96484375 9.12109375 C1.92325897 9.00234381 5.19110223 9.33133784 9 10 C9 10.33 9 10.66 9 11 C-5.59681093 13.29612756 -5.59681093 13.29612756 -13 13 C-13 13.33 -13 13.66 -13 14 C-17.96073422 15.32286246 -22.91111512 15.08893197 -28 15 C-28 14.34 -28 13.68 -28 13 C-26.35 12.67 -24.7 12.34 -23 12 C-22.67 11.01 -22.34 10.02 -22 9 C-19.453125 7.24609375 -19.453125 7.24609375 -16.25 5.4375 C-15.20328125 4.83808594 -14.1565625 4.23867188 -13.078125 3.62109375 C-4.7114094 -0.7852349 -4.7114094 -0.7852349 0 0 Z " fill="#F1F1F1" transform="translate(110,45)"/>
<path d="M0 0 C0 1.98 0 3.96 0 6 C2.475 6.99 2.475 6.99 5 8 C5 8.66 5 9.32 5 10 C0.23306208 11.18991133 -4.47552817 11.23944642 -9.359375 11.3515625 C-10.26318909 11.37471527 -11.16700317 11.39786804 -12.09820557 11.42172241 C-14.00779913 11.46924512 -15.91745048 11.5144929 -17.82714844 11.55761719 C-20.72616113 11.62445042 -23.62472981 11.70240042 -26.5234375 11.78125 C-28.38540042 11.82619891 -30.24737934 11.87049074 -32.109375 11.9140625 C-32.96593689 11.93796051 -33.82249878 11.96185852 -34.70501709 11.98648071 C-40.23370703 12.09965447 -45.51498509 11.71408685 -51 11 C-51 10.67 -51 10.34 -51 10 C-46.05661173 9.5672713 -41.11277326 9.14025581 -36.16845703 8.71826172 C-34.49059109 8.57427898 -32.81285246 8.4288037 -31.13525391 8.28173828 C-22.40465244 7.51735566 -13.77365066 6.78557269 -5 7 C-5 6.01 -5 5.02 -5 4 C-5.66 4 -6.32 4 -7 4 C-7 3.34 -7 2.68 -7 2 C-7.99 1.67 -8.98 1.34 -10 1 C-6.1496895 -1.56687367 -4.41430237 -0.83288724 0 0 Z " fill="#747474" transform="translate(208,47)"/>
<path d="M0 0 C0 0.66 0 1.32 0 2 C0.66 2 1.32 2 2 2 C1.67 2.99 1.34 3.98 1 5 C-0.02451767 4.99666908 -0.02451767 4.99666908 -1.06973267 4.99327087 C-7.5699036 4.97306641 -14.07006552 4.95792456 -20.570261 4.94818783 C-23.91046644 4.9430135 -27.2506258 4.93545874 -30.59082031 4.92456055 C-34.44857452 4.91229768 -38.30629222 4.90672684 -42.1640625 4.90234375 C-43.33860992 4.89718246 -44.51315735 4.89202118 -45.72329712 4.88670349 C-52.78612937 4.88623559 -59.76212178 5.19522392 -66.80136108 5.77857971 C-71.53635046 6.10635122 -76.25668075 6.08712219 -81 6 C-81 5.67 -81 5.34 -81 5 C-79.02 4.67 -77.04 4.34 -75 4 C-75 3.67 -75 3.34 -75 3 C-68.27185867 1.96272169 -61.73968856 1.91690697 -54.94140625 2.0078125 C-52.59310326 2.02532627 -50.24479569 2.04223479 -47.89648438 2.05859375 C-44.22537386 2.08953628 -40.55449583 2.12510092 -36.88354492 2.17138672 C-33.31946981 2.21389864 -29.75566651 2.23721029 -26.19140625 2.2578125 C-24.5597628 2.28574387 -24.5597628 2.28574387 -22.89515686 2.3142395 C-17.04470985 2.33377279 -12.28423073 1.82488295 -6.83921814 -0.3833313 C-4.32454317 -1.22647291 -2.46664944 -0.87526271 0 0 Z " fill="#BDBDBD" transform="translate(201,49)"/>
<path d="M0 0 C5.63000273 -0.34469404 9.14886197 0.2833627 14 3 C14.9375 5.1875 14.9375 5.1875 15 7 C12.02277453 6.29666462 9.14743457 5.41751463 6.25 4.4375 C5.45078125 4.16808594 4.6515625 3.89867187 3.828125 3.62109375 C3.22484375 3.41613281 2.6215625 3.21117187 2 3 C3.45966059 4.45966059 5.13252633 4.85790644 7.0625 5.5625 C7.79597656 5.83191406 8.52945313 6.10132813 9.28515625 6.37890625 C10.13400391 6.68634766 10.13400391 6.68634766 11 7 C11 7.33 11 7.66 11 8 C7.7 8 4.4 8 1 8 C1 8.99 1 9.98 1 11 C2.95901454 10.88617347 4.9172338 10.75858875 6.875 10.625 C8.51082031 10.52058594 8.51082031 10.52058594 10.1796875 10.4140625 C13.13046474 10.26746509 13.13046474 10.26746509 15 8 C15.33 9.32 15.66 10.64 16 12 C4.66287016 16.59225513 4.66287016 16.59225513 -2 16 C-3.5955739 12.80885219 -3.38584417 9.47259755 -3 6 C-1.5 2.5 -1.5 2.5 0 0 Z " fill="#0B0C0D" transform="translate(27,56)"/>
<path d="M0 0 C-1.98 0.99 -1.98 0.99 -4 2 C-4 2.99 -4 3.98 -4 5 C-10.06828135 5.33507946 -16.13707837 5.6562092 -22.20678711 5.96435547 C-24.27209391 6.07118448 -26.33720632 6.18184266 -28.40209961 6.29638672 C-31.36790037 6.46024311 -34.33412456 6.61037658 -37.30078125 6.7578125 C-38.68841423 6.83891769 -38.68841423 6.83891769 -40.1040802 6.92166138 C-41.39507881 6.98195023 -41.39507881 6.98195023 -42.7121582 7.04345703 C-43.46938675 7.08342804 -44.2266153 7.12339905 -45.00679016 7.1645813 C-47 7 -47 7 -50 5 C-50 4.34 -50 3.68 -50 3 C-44.32608059 2.56845923 -38.65184933 2.14137077 -32.97729492 1.71826172 C-31.05012137 1.57395372 -29.12303576 1.42846597 -27.19604492 1.28173828 C-24.4134763 1.07007588 -21.63061065 0.86277074 -18.84765625 0.65625 C-17.99728287 0.59062866 -17.14690948 0.52500732 -16.27076721 0.45739746 C-10.83153673 0.05907512 -5.45398732 -0.0575872 0 0 Z " fill="#0C0D0E" transform="translate(73,84)"/>
<path d="M0 0 C-5.29260273 3.07719106 -11.53797405 3.61463419 -17.47924805 4.71435547 C-19.66471819 5.12076351 -21.84692944 5.54213183 -24.02929688 5.96484375 C-31.06947104 7.29935653 -37.80297035 8.37156382 -45 8 C-44.34 9.32 -43.68 10.64 -43 12 C-43.99 12.33 -44.98 12.66 -46 13 C-47.65 11.02 -49.3 9.04 -51 7 C-47.7 6.34 -44.4 5.68 -41 5 C-41 4.34 -41 3.68 -41 3 C-39.8553125 3.0309375 -39.8553125 3.0309375 -38.6875 3.0625 C-35.89814214 3.12942841 -35.89814214 3.12942841 -33 2 C-31.93265625 2.01160156 -30.8653125 2.02320312 -29.765625 2.03515625 C-25.84842925 1.99858492 -22.55450834 1.34005889 -18.75 0.4375 C-12.28092961 -1.00249679 -6.53194467 -1.1271339 0 0 Z " fill="#8E8E8E" transform="translate(63,72)"/>
<path d="M0 0 C0.10234659 9.06335876 0.06996173 17.98175113 -1 27 C-1.33 27 -1.66 27 -2 27 C-2.495 17.1 -2.495 17.1 -3 7 C-6.3 15.91 -9.6 24.82 -13 34 C-13.33 34 -13.66 34 -14 34 C-13.45339344 27.91121808 -12.07141474 22.71354433 -9.9375 17 C-9.51500977 15.83791016 -9.51500977 15.83791016 -9.08398438 14.65234375 C-8.39679702 12.76549033 -7.69945987 10.88233849 -7 9 C-7.67482422 9.95132813 -7.67482422 9.95132813 -8.36328125 10.921875 C-10.0998878 13.12682652 -11.4391553 13.94034013 -14 15 C-13.67 16.65 -13.34 18.3 -13 20 C-13.66 20 -14.32 20 -15 20 C-15 22.31 -15 24.62 -15 27 C-15.33 27 -15.66 27 -16 27 C-16 25.02 -16 23.04 -16 21 C-17.32 21 -18.64 21 -20 21 C-18.63846931 18.00595435 -17.07387579 15.75171803 -14.875 13.3125 C-12.84357315 11.05583126 -10.82917083 8.79819632 -8.8671875 6.48046875 C-7.81917969 5.25263672 -7.81917969 5.25263672 -6.75 4 C-6.10546875 3.236875 -5.4609375 2.47375 -4.796875 1.6875 C-3 0 -3 0 0 0 Z " fill="#C1C1C1" transform="translate(209,60)"/>
<path d="M0 0 C0.66 0 1.32 0 2 0 C2.40839111 0.64743164 2.81678223 1.29486328 3.23754883 1.96191406 C4.87215576 4.27662266 4.87215576 4.27662266 7.8190918 4.54589844 C9.49225464 4.57731934 9.49225464 4.57731934 11.19921875 4.609375 C13.01196289 4.65771484 13.01196289 4.65771484 14.86132812 4.70703125 C16.7552832 4.72830078 16.7552832 4.72830078 18.6875 4.75 C19.96173828 4.77964844 21.23597656 4.80929688 22.54882812 4.83984375 C25.69928292 4.91064049 28.8489934 4.96329047 32 5 C32 5.33 32 5.66 32 6 C29.69 6 27.38 6 25 6 C25 6.66 25 7.32 25 8 C21.92382812 8.29296875 21.92382812 8.29296875 18.84765625 8.5859375 C18.23792969 8.72257812 17.62820312 8.85921875 17 9 C16.67 9.66 16.34 10.32 16 11 C10.06 11 4.12 11 -2 11 C-2.33 9.68 -2.66 8.36 -3 7 C-2.01 7 -1.02 7 0 7 C-0.185625 6.030625 -0.37125 5.06125 -0.5625 4.0625 C-0.706875 3.051875 -0.85125 2.04125 -1 1 C-0.67 0.67 -0.34 0.34 0 0 Z " fill="#111315" transform="translate(19,87)"/>
<path d="M0 0 C28.71 0.33 57.42 0.66 87 1 C87 1.66 87 2.32 87 3 C81.61509359 3.91657981 76.45769811 4.11138159 71 4 C71 3.34 71 2.68 71 2 C47.24 2 23.48 2 -1 2 C-0.67 1.34 -0.34 0.68 0 0 Z " fill="#C8C8C8" transform="translate(5,98)"/>
<path d="M0 0 C1.485 0.495 1.485 0.495 3 1 C-0.78756477 4.61139896 -0.78756477 4.61139896 -3 6 C-5.875 5.8125 -5.875 5.8125 -8 5 C-8 5.66 -8 6.32 -8 7 C-10.31 7.33 -12.62 7.66 -15 8 C-15 7.01 -15 6.02 -15 5 C-15.98742187 5.01160156 -16.97484375 5.02320312 -17.9921875 5.03515625 C-19.27351562 5.04417969 -20.55484375 5.05320312 -21.875 5.0625 C-23.15117187 5.07410156 -24.42734375 5.08570312 -25.7421875 5.09765625 C-29 5 -29 5 -31 4 C-31 3.01 -31 2.02 -31 1 C-30.13197754 1.00523682 -29.26395508 1.01047363 -28.36962891 1.01586914 C-25.15299727 1.03289862 -21.93638859 1.04544408 -18.71972656 1.05493164 C-17.32681523 1.0599643 -15.9339092 1.06679098 -14.54101562 1.07543945 C-12.54038754 1.08755152 -10.53972112 1.09270412 -8.5390625 1.09765625 C-7.33459473 1.10289307 -6.13012695 1.10812988 -4.88916016 1.11352539 C-2.0586323 1.20087891 -2.0586323 1.20087891 0 0 Z " fill="#16181B" transform="translate(200,64)"/>
<path d="M0 0 C0 0.66 0 1.32 0 2 C-11.2701958 4.20708001 -22.55378102 6.31992832 -33.875 8.25 C-34.87789062 8.42499023 -35.88078125 8.59998047 -36.9140625 8.78027344 C-42.01948849 9.63750206 -46.82323279 10.2018795 -52 10 C-50.09761545 7.41466251 -48.91423082 6.97986834 -45.72875977 6.23217773 C-44.38477485 6.03652815 -43.0387578 5.85452648 -41.69140625 5.68359375 C-40.96944565 5.58160172 -40.24748505 5.47960968 -39.50364685 5.37452698 C-37.19139066 5.05034023 -34.8772333 4.74344694 -32.5625 4.4375 C-30.28720555 4.12510979 -28.01242084 3.80918088 -25.73764038 3.49307251 C-24.25451738 3.28758921 -22.77113904 3.08394015 -21.2875061 2.88217163 C-15.93782034 2.15060675 -10.6171167 1.29692464 -5.30053711 0.35180664 C-3 0 -3 0 0 0 Z " fill="#676767" transform="translate(183,74)"/>
<path d="M0 0 C3.28066479 1.66015514 6.20273694 3.61273767 9 6 C9 6.33 9 6.66 9 7 C-5.8735663 7.86140345 -5.8735663 7.86140345 -10.4375 4.5 C-11.283125 3.675 -12.12875 2.85 -13 2 C-8.63422051 -0.43306363 -4.91707244 -0.92878035 0 0 Z " fill="#F7F7F7" transform="translate(127,43)"/>
<path d="M0 0 C0 1.98 0 3.96 0 6 C1.65 6.66 3.3 7.32 5 8 C1.72373625 8.9821994 -1.22788119 9.11580914 -4.640625 9.09765625 C-5.71054688 9.09443359 -6.78046875 9.09121094 -7.8828125 9.08789062 C-8.99398437 9.07951172 -10.10515625 9.07113281 -11.25 9.0625 C-12.93996094 9.05573242 -12.93996094 9.05573242 -14.6640625 9.04882812 C-17.44276217 9.03705397 -20.22135409 9.0206084 -23 9 C-23 8.67 -23 8.34 -23 8 C-21.12528812 7.83012319 -19.25021305 7.66425224 -17.375 7.5 C-16.33085937 7.4071875 -15.28671875 7.314375 -14.2109375 7.21875 C-11.12853212 7.00875645 -8.08834771 6.96290273 -5 7 C-5 6.01 -5 5.02 -5 4 C-5.66 4 -6.32 4 -7 4 C-7 3.34 -7 2.68 -7 2 C-7.99 1.67 -8.98 1.34 -10 1 C-6.1496895 -1.56687367 -4.41430237 -0.83288724 0 0 Z " fill="#6C6C6D" transform="translate(208,47)"/>
<path d="M0 0 C-0.99 0.33 -1.98 0.66 -3 1 C2.04049377 4.54798393 5.74920567 6.36216384 12 7 C12.495 7.99 12.495 7.99 13 9 C5.08 9 -2.84 9 -11 9 C-11.33 8.34 -11.66 7.68 -12 7 C-5.565 6.505 -5.565 6.505 1 6 C-5.82520752 0.78072366 -11.5080174 0.14239605 -20 0 C-20 -0.33 -20 -0.66 -20 -1 C-4.81343284 -3.20895522 -4.81343284 -3.20895522 0 0 Z " fill="#5F5F5F" transform="translate(134,43)"/>
<path d="M0 0 C0 0.33 0 0.66 0 1 C-14.59681093 3.29612756 -14.59681093 3.29612756 -22 3 C-22 3.33 -22 3.66 -22 4 C-26.96073422 5.32286246 -31.91111512 5.08893197 -37 5 C-37 4.34 -37 3.68 -37 3 C-36.36191406 2.95101562 -35.72382812 2.90203125 -35.06640625 2.8515625 C-34.24011719 2.77679688 -33.41382812 2.70203125 -32.5625 2.625 C-31.73878906 2.55539063 -30.91507812 2.48578125 -30.06640625 2.4140625 C-29.38449219 2.27742188 -28.70257813 2.14078125 -28 2 C-27.67 1.34 -27.34 0.68 -27 0 C-24.0003508 -0.19654959 -21.00064899 -0.38246106 -18 -0.5625 C-17.16082031 -0.61857422 -16.32164063 -0.67464844 -15.45703125 -0.73242188 C-10.14062774 -1.0415151 -5.26352696 -0.82242609 0 0 Z " fill="#B3B3B3" transform="translate(119,55)"/>
<path d="M0 0 C3.45064614 2.07915521 5.50982281 3.58309359 7.77734375 6.984375 C7.40234375 9.171875 7.40234375 9.171875 6.77734375 10.984375 C6.44734375 9.334375 6.11734375 7.684375 5.77734375 5.984375 C4.89046875 6.04625 4.00359375 6.108125 3.08984375 6.171875 C-0.22265625 5.984375 -0.22265625 5.984375 -2.41015625 4.421875 C-6.90079005 2.12666217 -11.3527877 3.27649568 -16.22265625 3.984375 C-15.22265625 0.984375 -15.22265625 0.984375 -13.16015625 -0.203125 C-8.45541729 -1.50443578 -4.47854199 -2.04643395 0 0 Z " fill="#D6D6D6" transform="translate(42.22265625,53.015625)"/>
<path d="M0 0 C0.33 1.32 0.66 2.64 1 4 C1.99 3.67 2.98 3.34 4 3 C4 3.66 4 4.32 4 5 C5.95901454 4.88617347 7.9172338 4.75858875 9.875 4.625 C11.51082031 4.52058594 11.51082031 4.52058594 13.1796875 4.4140625 C16.13046474 4.26746509 16.13046474 4.26746509 18 2 C18.33 3.32 18.66 4.64 19 6 C7.66287016 10.59225513 7.66287016 10.59225513 1 10 C-0.60725635 6.78548731 -0.05748185 3.56387464 0 0 Z " fill="#2B2C2D" transform="translate(24,62)"/>
<path d="M0 0 C1.32 0.33 2.64 0.66 4 1 C3.67 1.33 3.34 1.66 3 2 C3.6496875 2.40992188 4.299375 2.81984375 4.96875 3.2421875 C5.8040625 3.78101563 6.639375 4.31984375 7.5 4.875 C8.3353125 5.40867187 9.170625 5.94234375 10.03125 6.4921875 C10.6809375 6.98976563 11.330625 7.48734375 12 8 C12 8.66 12 9.32 12 10 C2.41490083 12.3569916 -7.17876611 12.61683071 -17 13 C-14.09728639 11.40875338 -11.48002037 10.55385007 -8.234375 9.9296875 C-7.34492187 9.75566406 -6.45546875 9.58164062 -5.5390625 9.40234375 C-4.61867188 9.22832031 -3.69828125 9.05429687 -2.75 8.875 C-1.81414062 8.69324219 -0.87828125 8.51148438 0.0859375 8.32421875 C2.38966885 7.87757696 4.6943043 7.4363672 7 7 C6.4946875 6.66226563 5.989375 6.32453125 5.46875 5.9765625 C4.8190625 5.53054687 4.169375 5.08453125 3.5 4.625 C2.52546875 3.96371094 2.52546875 3.96371094 1.53125 3.2890625 C1.0259375 2.86367188 0.520625 2.43828125 0 2 C0 1.34 0 0.68 0 0 Z " fill="#717272" transform="translate(109,43)"/>
<path d="M0 0 C3.37462715 0.54723683 5.08235 1.0549 8 3 C9.9896995 3.39013716 11.99019869 3.73202649 14 4 C14.66 6.31 15.32 8.62 16 11 C19.79303725 9.99806563 22.71536341 9.18975773 26 7 C27.32 7 28.64 7 30 7 C30 6.34 30 5.68 30 5 C31.32 5.66 32.64 6.32 34 7 C33.67 7.66 33.34 8.32 33 9 C30.37109028 9.80572848 27.7963755 10.49780749 25.125 11.125 C24.39152344 11.30675781 23.65804687 11.48851563 22.90234375 11.67578125 C19.86999561 12.41039382 17.13078675 13 14 13 C13.67 10.36 13.34 7.72 13 5 C11.02 5.33 9.04 5.66 7 6 C7 5.34 7 4.68 7 4 C4.69 3.34 2.38 2.68 0 2 C0 1.34 0 0.68 0 0 Z " fill="#ACACAC" transform="translate(34,55)"/>
<path d="M0 0 C2.8125 0.5 2.8125 0.5 5.8125 3.5 C1.3575 3.995 1.3575 3.995 -3.1875 4.5 C-3.1875 5.16 -3.1875 5.82 -3.1875 6.5 C-1.8675 6.83 -0.5475 7.16 0.8125 7.5 C-0.54875 7.438125 -0.54875 7.438125 -1.9375 7.375 C-5.06893035 7.26535098 -5.06893035 7.26535098 -7.125 8.5 C-10.13547252 9.95962304 -12.89600734 9.62659587 -16.1875 9.5 C-16.5175 8.51 -16.8475 7.52 -17.1875 6.5 C-15.99125 6.438125 -14.795 6.37625 -13.5625 6.3125 C-10.2191775 5.92401534 -8.51017337 5.24195844 -6.0625 2.9375 C-3.1875 0.5 -3.1875 0.5 0 0 Z " fill="#8C8C8C" transform="translate(85.1875,53.5)"/>
<path d="M0 0 C0.33 0.66 0.66 1.32 1 2 C0.67 2.99 0.34 3.98 0 5 C-0.06802967 6.72795352 -0.08495645 8.45835365 -0.0625 10.1875 C-0.04896484 11.53908203 -0.04896484 11.53908203 -0.03515625 12.91796875 C-0.02355469 13.60503906 -0.01195312 14.29210937 0 15 C1.65 15.33 3.3 15.66 5 16 C4.67 16.99 4.34 17.98 4 19 C1.69 18.67 -0.62 18.34 -3 18 C-3 18.66 -3 19.32 -3 20 C-6.96 20.495 -6.96 20.495 -11 21 C-9.875 18.5625 -9.875 18.5625 -8 16 C-4.8125 15.1875 -4.8125 15.1875 -2 15 C-2.02320313 14.16855469 -2.04640625 13.33710937 -2.0703125 12.48046875 C-2.08835937 11.39378906 -2.10640625 10.30710937 -2.125 9.1875 C-2.14820313 8.10855469 -2.17140625 7.02960938 -2.1953125 5.91796875 C-2 3 -2 3 0 0 Z " fill="#D5D5D5" transform="translate(25,57)"/>
<path d="M0 0 C0.763125 0.20625 1.52625 0.4125 2.3125 0.625 C2.1475 1.57375 1.9825 2.5225 1.8125 3.5 C1.2598365 6.42668901 1.2598365 6.42668901 1.3125 8.625 C4.2825 9.12 4.2825 9.12 7.3125 9.625 C7.3125 9.955 7.3125 10.285 7.3125 10.625 C4.6725 10.625 2.0325 10.625 -0.6875 10.625 C-0.3575 11.615 -0.0275 12.605 0.3125 13.625 C-1.3375 13.625 -2.9875 13.625 -4.6875 13.625 C-4.0275 13.295 -3.3675 12.965 -2.6875 12.625 C-3.0175 10.975 -3.3475 9.325 -3.6875 7.625 C-4.3475 7.625 -5.0075 7.625 -5.6875 7.625 C-5.875 4.75 -5.875 4.75 -5.6875 1.625 C-2.6875 -0.375 -2.6875 -0.375 0 0 Z " fill="#5D5D5E" transform="translate(17.6875,85.375)"/>
<path d="M0 0 C2.291272 0.04252941 4.583697 0.040825 6.875 0 C15.2812568 -0.06731737 23.61624501 0.4253485 32 1 C32 1.33 32 1.66 32 2 C15.5 2 -1 2 -18 2 C-15.6910893 -0.3089107 -14.95887363 -0.35715785 -11.8125 -0.6875 C-10.70841797 -0.81705078 -10.70841797 -0.81705078 -9.58203125 -0.94921875 C-6.31418554 -1.01348803 -3.23384788 -0.46297284 0 0 Z " fill="#414141" transform="translate(119,91)"/>
<path d="M0 0 C1.7015625 0.2784375 1.7015625 0.2784375 3.4375 0.5625 C4.613125 0.706875 5.78875 0.85125 7 1 C7.33 0.67 7.66 0.34 8 0 C10.33297433 -0.04092937 12.66705225 -0.04241723 15 0 C14 3 14 3 12.43359375 4.09765625 C7.67569823 6.39746093 3.17057453 7.89201974 -2 9 C-2 7.68 -2 6.36 -2 5 C0.31 4.34 2.62 3.68 5 3 C3.35 3 1.7 3 0 3 C0 2.01 0 1.02 0 0 Z " fill="#181B1D" transform="translate(100,66)"/>
<path d="M0 0 C12.87 0.495 12.87 0.495 26 1 C26 1.33 26 1.66 26 2 C18.66236293 3.17402193 11.41834582 3.09377123 4 3 C5.05838549 4.60726195 5.05838549 4.60726195 7 6 C10.4223884 6.58218332 10.4223884 6.58218332 14.1875 6.6875 C15.45980469 6.75324219 16.73210938 6.81898437 18.04296875 6.88671875 C19.01878906 6.92410156 19.99460937 6.96148437 21 7 C21 7.33 21 7.66 21 8 C18.43493576 8.16276553 15.88024578 8.28113984 13.3125 8.375 C12.2306543 8.45041016 12.2306543 8.45041016 11.12695312 8.52734375 C5.85042105 8.67190627 5.85042105 8.67190627 3.36474609 6.70800781 C0 2.80324074 0 2.80324074 0 0 Z " fill="#EFEFEF" transform="translate(19,84)"/>
<path d="M0 0 C1.12591553 0.00523682 2.25183105 0.01047363 3.41186523 0.01586914 C4.62680664 0.0190918 5.84174805 0.02231445 7.09350586 0.02563477 C8.37290039 0.03401367 9.65229492 0.04239258 10.97045898 0.05102539 C12.2537207 0.05553711 13.53698242 0.06004883 14.85913086 0.06469727 C18.04211921 0.07652994 21.22501661 0.09301471 24.40795898 0.11352539 C24.40795898 1.10352539 24.40795898 2.09352539 24.40795898 3.11352539 C20.30494975 3.36804123 16.20080423 3.58778985 12.09545898 3.80102539 C10.92821289 3.87385742 9.7609668 3.94668945 8.55834961 4.02172852 C7.44008789 4.07651367 6.32182617 4.13129883 5.16967773 4.18774414 C3.62219849 4.27415161 3.62219849 4.27415161 2.04345703 4.36230469 C-0.59204102 4.11352539 -0.59204102 4.11352539 -2.45214844 2.60888672 C-2.82831299 2.11541748 -3.20447754 1.62194824 -3.59204102 1.11352539 C-2.59204102 0.11352539 -2.59204102 0.11352539 0 0 Z M0.40795898 1.11352539 C0.40795898 1.44352539 0.40795898 1.77352539 0.40795898 2.11352539 C7.00795898 2.11352539 13.60795898 2.11352539 20.40795898 2.11352539 C20.40795898 1.78352539 20.40795898 1.45352539 20.40795898 1.11352539 C13.80795898 1.11352539 7.20795898 1.11352539 0.40795898 1.11352539 Z " fill="#D5D5D5" transform="translate(150.592041015625,101.886474609375)"/>
<path d="M0 0 C0.87462891 0.00451172 1.74925781 0.00902344 2.65039062 0.01367188 C4.78779047 0.02535166 6.92515463 0.04328311 9.0625 0.0625 C9.0625 0.3925 9.0625 0.7225 9.0625 1.0625 C6.7525 1.0625 4.4425 1.0625 2.0625 1.0625 C2.0625 1.7225 2.0625 2.3825 2.0625 3.0625 C-0.91601562 3.40429688 -0.91601562 3.40429688 -3.89453125 3.74609375 C-6.13146393 4.03420735 -6.13146393 4.03420735 -8.9375 5.0625 C-11.2781065 4.78480092 -13.61374308 4.45710023 -15.9375 4.0625 C-16.2675 3.0725 -16.5975 2.0825 -16.9375 1.0625 C-11.24910882 0.0822752 -5.76455667 -0.05698801 0 0 Z " fill="#010204" transform="translate(41.9375,91.9375)"/>
<path d="M0 0 C0.78117187 0.49113281 0.78117187 0.49113281 1.578125 0.9921875 C4.74712009 2.31089836 7.3298619 2.19340276 10.75 2.125 C11.92046875 2.10695313 13.0909375 2.08890625 14.296875 2.0703125 C15.18890625 2.04710938 16.0809375 2.02390625 17 2 C17 3.32 17 4.64 17 6 C16.43152344 5.91621094 15.86304688 5.83242187 15.27734375 5.74609375 C11.28702789 5.21982505 8.19592185 4.96466983 4.1875 5.6875 C1 6 1 6 -1.4375 4.0625 C-1.953125 3.381875 -2.46875 2.70125 -3 2 C-2.01 1.34 -1.02 0.68 0 0 Z " fill="#1A1C1E" transform="translate(120,63)"/>
<path d="M0 0 C0 0.66 0 1.32 0 2 C0.66 2 1.32 2 2 2 C1.67 2.99 1.34 3.98 1 5 C-3.95 4.67 -8.9 4.34 -14 4 C-13.67 3.01 -13.34 2.02 -13 1 C-8.28425116 -0.57191628 -4.86052444 -1.51891389 0 0 Z " fill="#B2B2B2" transform="translate(201,49)"/>
<path d="M0 0 C-2.38573379 1.89213369 -4.07175348 3.02391783 -7 4 C-5.72992786 4.9593419 -4.45891081 5.91743294 -3.1875 6.875 C-2.47980469 7.40867187 -1.77210937 7.94234375 -1.04296875 8.4921875 C0.60456297 9.70814781 2.29624211 10.86416141 4 12 C1.75 12.25 1.75 12.25 -1 12 C-2.9375 10.25 -2.9375 10.25 -5 8 C-6.98768394 6.64837492 -8.9866347 5.31306433 -11 4 C-11.66 3.34 -12.32 2.68 -13 2 C-13 2.66 -13 3.32 -13 4 C-14.65 3.67 -16.3 3.34 -18 3 C-12.39004157 -0.73997229 -6.52699931 -0.11406407 0 0 Z " fill="#A0A0A0" transform="translate(122,41)"/>
<path d="M0 0 C0.99 0 1.98 0 3 0 C3.10234659 9.06335876 3.06996173 17.98175113 2 27 C1.67 27 1.34 27 1 27 C0.67 19.74 0.34 12.48 0 5 C-0.99 5.495 -0.99 5.495 -2 6 C-1.125 1.125 -1.125 1.125 0 0 Z " fill="#8F8F8F" transform="translate(206,60)"/>
<path d="M0 0 C-7.34092308 4.89394872 -16.45753909 4.54408214 -25 5 C-23.0737597 2.37657571 -21.91934295 1.9822971 -18.671875 1.26953125 C-16.73054687 1.04330078 -16.73054687 1.04330078 -14.75 0.8125 C-12.82414063 0.57466797 -12.82414063 0.57466797 -10.859375 0.33203125 C-7.21541645 0.01853279 -3.65502574 -0.06154836 0 0 Z " fill="#808080" transform="translate(156,79)"/>
<path d="M0 0 C11.88 0 23.76 0 36 0 C35.67 0.99 35.34 1.98 35 3 C33.02 3 31.04 3 29 3 C29 2.34 29 1.68 29 1 C19.43 1 9.86 1 0 1 C0 0.67 0 0.34 0 0 Z " fill="#BDBDBD" transform="translate(162,99)"/>
<path d="M0 0 C0.66 0 1.32 0 2 0 C1.67 1.65 1.34 3.3 1 5 C-0.32 5.33 -1.64 5.66 -3 6 C-4.01111093 9.04913228 -4.01111093 9.04913228 -3 12 C-3.66 12 -4.32 12 -5 12 C-5 14.31 -5 16.62 -5 19 C-5.33 19 -5.66 19 -6 19 C-6 17.02 -6 15.04 -6 13 C-7.32 13 -8.64 13 -10 13 C-8.56501627 9.79111679 -6.78256013 7.42193016 -4.4375 4.8125 C-3.81746094 4.11769531 -3.19742188 3.42289062 -2.55859375 2.70703125 C-1.72141231 1.79011824 -0.8779528 0.8779528 0 0 Z " fill="#A5A5A5" transform="translate(199,68)"/>
<path d="M0 0 C-3.78756477 3.61139896 -3.78756477 3.61139896 -6 5 C-8.875 4.8125 -8.875 4.8125 -11 4 C-11 4.66 -11 5.32 -11 6 C-13.31 6.33 -15.62 6.66 -18 7 C-18 6.34 -18 5.68 -18 5 C-17.195625 4.87625 -16.39125 4.7525 -15.5625 4.625 C-14.716875 4.41875 -13.87125 4.2125 -13 4 C-12.67 3.34 -12.34 2.68 -12 2 C-10.0390625 1.11328125 -10.0390625 1.11328125 -7.625 0.3125 C-6.83351562 0.04050781 -6.04203125 -0.23148437 -5.2265625 -0.51171875 C-3 -1 -3 -1 0 0 Z " fill="#1E2022" transform="translate(203,65)"/>
<path d="M0 0 C0 0.33 0 0.66 0 1 C-2.31 1.33 -4.62 1.66 -7 2 C-7 2.33 -7 2.66 -7 3 C-13.69613196 3.797837 -20.25766581 4.12910853 -27 4 C-27 3.67 -27 3.34 -27 3 C-25.02 3 -23.04 3 -21 3 C-21 2.34 -21 1.68 -21 1 C-13.96094956 0.06145994 -7.09727428 -0.10808032 0 0 Z " fill="#787879" transform="translate(153,58)"/>
<path d="M0 0 C-5.81793706 3.0581464 -11.53394917 3.31287343 -18 3 C-20.2421875 1.98828125 -20.2421875 1.98828125 -22 1 C-14.37145754 -0.78540355 -7.75727034 -1.11032496 0 0 Z " fill="#9E9E9E" transform="translate(63,72)"/>
<path d="M0 0 C2.79192205 -0.05380578 5.5828141 -0.09357669 8.375 -0.125 C9.1690625 -0.14175781 9.963125 -0.15851562 10.78125 -0.17578125 C12.85492015 -0.19335473 14.92883241 -0.10335168 17 0 C17.66 0.66 18.32 1.32 19 2 C10.64895793 2.68271293 2.38011029 3.15392039 -6 3 C-6 2.67 -6 2.34 -6 2 C-4.02 1.67 -2.04 1.34 0 1 C0 0.67 0 0.34 0 0 Z " fill="#D1D1D1" transform="translate(126,52)"/>
<path d="M0 0 C5.700979 -0.87707369 8.76125856 1.46206662 13.2421875 4.58984375 C13.82226562 5.05519531 14.40234375 5.52054688 15 6 C15 6.33 15 6.66 15 7 C9.299021 7.87707369 6.23874144 5.53793338 1.7578125 2.41015625 C1.17773438 1.94480469 0.59765625 1.47945312 0 1 C0 0.67 0 0.34 0 0 Z " fill="#999999" transform="translate(130,43)"/>
<path d="M0 0 C-3.39470728 1.96710422 -6.57636288 2.59382227 -10.4375 3.1875 C-11.54996094 3.36667969 -12.66242188 3.54585938 -13.80859375 3.73046875 C-16.83465711 3.98603591 -19.08247343 3.76891822 -22 3 C-15.25347335 -0.74455929 -7.4713948 -1.66030996 0 0 Z " fill="#949494" transform="translate(80,69)"/>
<path d="M0 0 C0 0.66 0 1.32 0 2 C-3.82810821 3.27603607 -7.23475107 2.86283987 -11.1875 2.5625 C-11.93708984 2.51029297 -12.68667969 2.45808594 -13.45898438 2.40429688 C-15.30637082 2.27486216 -17.15324371 2.13813482 -19 2 C-19 1.34 -19 0.68 -19 0 C-12.41816638 -0.8931507 -6.57849492 -0.95494281 0 0 Z " fill="#1A1D1F" transform="translate(158,66)"/>
<path d="M0 0 C-1.98 0.99 -1.98 0.99 -4 2 C-4 2.99 -4 3.98 -4 5 C-6.97 4.67 -9.94 4.34 -13 4 C-13 3.67 -13 3.34 -13 3 C-15.64 2.67 -18.28 2.34 -21 2 C-21 1.67 -21 1.34 -21 1 C-13.97252688 0.33411422 -7.05985273 -0.11766421 0 0 Z " fill="#313233" transform="translate(73,84)"/>
<path d="M0 0 C0.66 0 1.32 0 2 0 C2.556875 0.9590625 2.556875 0.9590625 3.125 1.9375 C6.0125068 5.11375748 8.80002643 4.7245919 13 5 C13 5.33 13 5.66 13 6 C6.565 6.495 6.565 6.495 0 7 C-0.33 5.02 -0.66 3.04 -1 1 C-0.67 0.67 -0.34 0.34 0 0 Z " fill="#282829" transform="translate(19,87)"/>
<path d="M0 0 C-3 2 -3 2 -7 2 C-6.34 3.32 -5.68 4.64 -5 6 C-5.99 6.33 -6.98 6.66 -8 7 C-9.65 5.02 -11.3 3.04 -13 1 C-8.20862412 -0.6290678 -4.94367454 -1.20577428 0 0 Z " fill="#9F9F9F" transform="translate(25,78)"/>
<path d="M0 0 C0 0.33 0 0.66 0 1 C-2.39466864 1.36447158 -4.7901071 1.7168294 -7.1875 2.0625 C-7.86103516 2.16626953 -8.53457031 2.27003906 -9.22851562 2.37695312 C-13.07861077 2.92160073 -16.24088669 3.04379263 -20 2 C-20 1.67 -20 1.34 -20 1 C-12.95678017 -0.59295252 -7.14349955 -1.1710655 0 0 Z " fill="#828283" transform="translate(125,62)"/>
<path d="M0 0 C1.65 0.66 3.3 1.32 5 2 C1.72373625 2.9821994 -1.22788119 3.11580914 -4.640625 3.09765625 C-5.71054688 3.09443359 -6.78046875 3.09121094 -7.8828125 3.08789062 C-8.99398437 3.07951172 -10.10515625 3.07113281 -11.25 3.0625 C-12.93996094 3.05573242 -12.93996094 3.05573242 -14.6640625 3.04882812 C-17.44276217 3.03705397 -20.22135409 3.0206084 -23 3 C-23 2.67 -23 2.34 -23 2 C-16.26226703 1.3516958 -9.63422006 0.88971687 -2.86328125 1.0625 C-0.98414353 1.21181159 -0.98414353 1.21181159 0 0 Z " fill="#A2A2A2" transform="translate(208,53)"/>
<path d="M0 0 C1.32 0.33 2.64 0.66 4 1 C3.67 1.33 3.34 1.66 3 2 C3.5775 2.33773437 4.155 2.67546875 4.75 3.0234375 C5.86375 3.69246094 5.86375 3.69246094 7 4.375 C7.7425 4.81585938 8.485 5.25671875 9.25 5.7109375 C9.8275 6.13632812 10.405 6.56171875 11 7 C11 7.66 11 8.32 11 9 C7.32589215 10.17571451 3.83070817 10.07366746 0 10 C2.33214148 8.79371992 4.49642139 7.8345262 7 7 C6.4946875 6.66226563 5.989375 6.32453125 5.46875 5.9765625 C4.49421875 5.30753906 4.49421875 5.30753906 3.5 4.625 C2.8503125 4.18414062 2.200625 3.74328125 1.53125 3.2890625 C1.0259375 2.86367188 0.520625 2.43828125 0 2 C0 1.34 0 0.68 0 0 Z " fill="#414141" transform="translate(109,43)"/>
<path d="M0 0 C5.28 0.33 10.56 0.66 16 1 C16 1.33 16 1.66 16 2 C8.63512596 2.99862699 1.42686315 3.10331031 -6 3 C-6 2.67 -6 2.34 -6 2 C-4.02 1.67 -2.04 1.34 0 1 C0 0.67 0 0.34 0 0 Z " fill="#B9B9B9" transform="translate(150,57)"/>
<path d="M0 0 C0 0.66 0 1.32 0 2 C-1.98 2.33 -3.96 2.66 -6 3 C-6 2.34 -6 1.68 -6 1 C-7.670625 1.309375 -7.670625 1.309375 -9.375 1.625 C-10.57125 1.74875 -11.7675 1.8725 -13 2 C-13.66 1.34 -14.32 0.68 -15 0 C-9.96266834 -1.5111995 -5.11828973 -0.64599773 0 0 Z " fill="#1F2022" transform="translate(189,73)"/>
<path d="M0 0 C6.75 -0.125 6.75 -0.125 9 1 C9 1.66 9 2.32 9 3 C4.545 3.495 4.545 3.495 0 4 C0 2.68 0 1.36 0 0 Z " fill="#16191C" transform="translate(159,65)"/>
<path d="M0 0 C0 0.33 0 0.66 0 1 C-2.41507328 1.39049692 -4.83066712 1.76277086 -7.25 2.125 C-8.27287109 2.29322266 -8.27287109 2.29322266 -9.31640625 2.46484375 C-13.16969746 3.02600266 -15.7280825 3.27684981 -19 1 C-12.31349436 -0.48725585 -6.76106962 -1.27567351 0 0 Z " fill="#C9C9C9" transform="translate(119,55)"/>
<path d="M0 0 C6.75 0.75 6.75 0.75 9 3 C7.68 3 6.36 3 5 3 C5 3.66 5 4.32 5 5 C3.35 5 1.7 5 0 5 C-0.33 4.01 -0.66 3.02 -1 2 C-0.67 1.34 -0.34 0.68 0 0 Z " fill="#919191" transform="translate(22,75)"/>
<path d="M0 0 C0.57621094 0.32613281 1.15242188 0.65226562 1.74609375 0.98828125 C-0.00209216 1.21132566 -1.75260948 1.41614575 -3.50390625 1.61328125 C-4.4784375 1.72929688 -5.45296875 1.8453125 -6.45703125 1.96484375 C-9.38820018 1.98940662 -10.79919589 1.51955295 -13.25390625 -0.01171875 C-8.84382495 -1.48174585 -4.28202509 -1.92208752 0 0 Z " fill="#878787" transform="translate(47.25390625,75.01171875)"/>
<path d="M0 0 C1.32 0.66 2.64 1.32 4 2 C3.67 2.66 3.34 3.32 3 4 C0.71484375 4.4140625 0.71484375 4.4140625 -2.0625 4.625 C-2.98160156 4.69976562 -3.90070312 4.77453125 -4.84765625 4.8515625 C-5.91306641 4.92503906 -5.91306641 4.92503906 -7 5 C-5.75 3.5 -5.75 3.5 -4 2 C-2.68 2 -1.36 2 0 2 C0 1.34 0 0.68 0 0 Z " fill="#282828" transform="translate(64,60)"/>
<path d="M0 0 C0.66 0.33 1.32 0.66 2 1 C3.39195915 5.17587745 1.82323219 7.13474776 0 11 C-0.185625 10.1028125 -0.185625 10.1028125 -0.375 9.1875 C-0.95475985 6.73768652 -0.95475985 6.73768652 -3 4 C-2.01 2.68 -1.02 1.36 0 0 Z " fill="#B5B5B5" transform="translate(203,63)"/>
<path d="M0 0 C-2.77079887 3.80984844 -6.62868145 4.06840752 -11 5 C-11 3 -11 3 -10 1.375 C-6.79914107 -0.82559052 -3.82106483 -0.18792122 0 0 Z " fill="#6B6B6B" transform="translate(107,44)"/>
<path d="M0 0 C1.32 0.33 2.64 0.66 4 1 C3.67 1.33 3.34 1.66 3 2 C2.76321284 4.69235776 2.57801975 7.36498156 2.4375 10.0625 C2.39431641 10.82111328 2.35113281 11.57972656 2.30664062 12.36132812 C2.20026367 14.24065438 2.09960066 16.12030244 2 18 C1.67 18 1.34 18 1 18 C0.67 12.06 0.34 6.12 0 0 Z " fill="#C8C8C8" transform="translate(208,57)"/>
<path d="M0 0 C3.3 0 6.6 0 10 0 C10 0.99 10 1.98 10 3 C6.7 2.67 3.4 2.34 0 2 C0 1.34 0 0.68 0 0 Z " fill="#C8C8C8" transform="translate(128,107)"/>
<path d="M0 0 C1.32 0 2.64 0 4 0 C4.33 2.31 4.66 4.62 5 7 C4.01 7 3.02 7 2 7 C1.34 4.69 0.68 2.38 0 0 Z " fill="#080809" transform="translate(43,60)"/>
<path d="M0 0 C-0.33 1.65 -0.66 3.3 -1 5 C-3.31 4.67 -5.62 4.34 -8 4 C-8 3.34 -8 2.68 -8 2 C-2.25 0 -2.25 0 0 0 Z " fill="#1E2023" transform="translate(87,77)"/>
<path d="M0 0 C0 0.99 0 1.98 0 3 C-1.32 3 -2.64 3 -4 3 C-4 3.66 -4 4.32 -4 5 C-4.99 5.33 -5.98 5.66 -7 6 C-7 4.68 -7 3.36 -7 2 C-2.25 0 -2.25 0 0 0 Z " fill="#1C1F22" transform="translate(97,73)"/>
<path d="M0 0 C0.33 0 0.66 0 1 0 C1 1.65 1 3.3 1 5 C1.66 5 2.32 5 3 5 C3.33 4.34 3.66 3.68 4 3 C4 4.65 4 6.3 4 8 C2.35 8 0.7 8 -1 8 C-0.67 5.36 -0.34 2.72 0 0 Z " fill="#C1C1C1" transform="translate(11,88)"/>
<path d="M0 0 C0.66 0 1.32 0 2 0 C1.75 2.375 1.75 2.375 1 5 C-1.0625 6.3125 -1.0625 6.3125 -3 7 C-2.25 2.25 -2.25 2.25 0 0 Z " fill="#D1D1D1" transform="translate(197,72)"/>
<path d="M0 0 C0.66 0 1.32 0 2 0 C2.33 1.98 2.66 3.96 3 6 C3.99 6.33 4.98 6.66 6 7 C3.69 7.33 1.38 7.66 -1 8 C-0.34 7.67 0.32 7.34 1 7 C0.67 4.69 0.34 2.38 0 0 Z " fill="#707070" transform="translate(42,61)"/>
<path d="M0 0 C4.19360449 0.67097672 7.40334352 2.8558394 11 5 C9.234375 5.6484375 9.234375 5.6484375 7 6 C5.078125 5.0390625 5.078125 5.0390625 3.25 3.625 C2.63640625 3.16351563 2.0228125 2.70203125 1.390625 2.2265625 C0.93171875 1.82179687 0.4728125 1.41703125 0 1 C0 0.67 0 0.34 0 0 Z " fill="#E2E2E2" transform="translate(132,44)"/>
<path d="M0 0 C0.33 0.66 0.66 1.32 1 2 C2.98 2 4.96 2 7 2 C7 2.66 7 3.32 7 4 C4.03 4 1.06 4 -2 4 C-2 3.01 -2 2.02 -2 1 C-1.34 0.67 -0.68 0.34 0 0 Z " fill="#1A1D20" transform="translate(27,65)"/>
<path d="M0 0 C-1.65 1.32 -3.3 2.64 -5 4 C-6.32 3.01 -7.64 2.02 -9 1 C-3.375 -1.125 -3.375 -1.125 0 0 Z " fill="#323333" transform="translate(203,65)"/>
<path d="M0 0 C2.33944736 0.28730055 4.6739143 0.61936779 7 1 C5.6875 2.5 5.6875 2.5 4 4 C3.01 4 2.02 4 1 4 C1 3.34 1 2.68 1 2 C0.34 1.67 -0.32 1.34 -1 1 C-0.67 0.67 -0.34 0.34 0 0 Z " fill="#A8A8A8" transform="translate(201,46)"/>
<path d="M0 0 C0 0.66 0 1.32 0 2 C-3.3 2 -6.6 2 -10 2 C-3.6 -1.2 -3.6 -1.2 0 0 Z " fill="#111213" transform="translate(147,96)"/>
<path d="M0 0 C1.258125 0.226875 2.51625 0.45375 3.8125 0.6875 C0.72361478 2.74675681 0.10314073 2.9265374 -3.375 2.8125 C-5.2621875 2.750625 -5.2621875 2.750625 -7.1875 2.6875 C-5.15110924 -0.49436057 -3.4972064 -0.45804119 0 0 Z " fill="#A7A7A7" transform="translate(106.1875,63.3125)"/>
<path d="M0 0 C1.98 0 3.96 0 6 0 C5.67 0.99 5.34 1.98 5 3 C3.35 3 1.7 3 0 3 C0 2.01 0 1.02 0 0 Z " fill="#2A2B2E" transform="translate(109,66)"/>
<path d="M0 0 C2.475 0.99 2.475 0.99 5 2 C1.86501708 3.85776765 -0.37471432 4.20140476 -4 4 C-2.68 2.68 -1.36 1.36 0 0 Z " fill="#262626" transform="translate(86,54)"/>
</svg>
