<svg version="1.1" id="Layer_1" xmlns="http://www.w3.org/2000/svg" xmlns:xlink="http://www.w3.org/1999/xlink" x="0px" y="0px"
	 width="100%" viewBox="0 0 359 150" enable-background="new 0 0 359 150" xml:space="preserve">
<path fill="#FDFEFE" opacity="1.000000" stroke="none" 
	d="
M254.000000,151.000000 
	C169.333359,151.000000 85.166710,151.000000 1.000045,151.000000 
	C1.000030,101.000031 1.000030,51.000065 1.000015,1.000072 
	C120.666603,1.000048 240.333206,1.000048 359.999878,1.000024 
	C359.999908,50.999928 359.999908,100.999855 359.999939,150.999893 
	C324.833344,151.000000 289.666656,151.000000 254.000000,151.000000 
M117.998016,119.001740 
	C117.998016,119.001740 118.004921,118.940422 117.822121,118.511612 
	C117.635895,118.244644 117.385513,118.069199 116.468811,117.688354 
	C114.842323,115.508980 113.215836,113.329605 112.247063,110.809135 
	C112.961075,110.142914 113.675087,109.476692 114.898293,109.226593 
	C117.806152,113.041359 120.555550,117.133423 127.177460,115.921242 
	C128.114960,115.655853 129.052475,115.390465 130.727020,114.929924 
	C131.988190,114.883385 133.249359,114.836845 134.960922,114.917297 
	C135.283920,114.959862 135.579880,114.889275 136.689499,114.452721 
	C137.616531,113.874870 138.543549,113.297020 139.470581,112.719170 
	C139.324036,112.373848 139.177505,112.028519 139.030975,111.683197 
	C137.355118,111.449272 135.679260,111.215347 134.005707,110.359482 
	C134.019669,109.945122 134.033630,109.530754 134.757706,109.060921 
	C135.847656,108.479111 136.937607,107.897293 138.756271,107.143661 
	C140.661392,106.818398 143.658752,107.537323 141.325470,103.277641 
	C138.341324,103.249741 135.357178,103.221848 131.621490,103.415977 
	C130.075256,103.174316 128.529037,102.932648 126.598511,102.312370 
	C126.248245,102.267593 125.897987,102.222809 124.842751,102.155670 
	C119.903984,99.070107 114.965210,95.984543 109.733429,92.361839 
	C108.829239,91.551392 107.925049,90.740936 107.263588,89.420273 
	C107.834557,88.950157 108.405525,88.480042 109.619125,87.987732 
	C109.858467,87.663612 110.097809,87.339493 110.697632,87.482880 
	C111.455910,87.998131 112.214195,88.513382 113.027596,89.625488 
	C113.366951,90.078575 113.706306,90.531654 114.731766,91.118340 
	C119.157288,93.458588 123.582809,95.798836 128.491791,98.632996 
	C129.396591,98.725937 130.301407,98.818878 132.103394,98.889221 
	C135.725662,99.061760 139.347916,99.234299 142.976425,100.017319 
	C143.318771,100.426880 143.661118,100.836449 144.003464,101.246017 
	C144.287567,100.048218 144.571671,98.850410 144.777161,97.171936 
	C144.819809,96.850060 144.856583,96.527519 145.174271,95.550186 
	C144.786804,94.351448 144.399338,93.152702 144.026550,91.601006 
	C144.026550,91.601006 144.015976,91.247894 144.750687,90.733391 
	C144.756348,85.343994 144.762009,79.954597 144.909454,73.866699 
	C144.653809,73.246964 144.398148,72.627220 143.847610,71.299858 
	C143.526367,70.183487 143.196671,69.069466 142.885071,67.950409 
	C133.044235,32.608559 92.576912,15.330907 60.624802,32.964779 
	C44.346066,41.948761 35.085793,56.206207 30.439901,74.295807 
	C30.525534,74.853958 30.611168,75.412109 30.719795,76.815979 
	C30.518496,81.543533 30.317196,86.271080 29.740112,91.167107 
	C29.881023,91.444359 30.021935,91.721619 30.338526,92.231636 
	C30.338526,92.231636 30.185780,92.480057 30.050159,93.318146 
	C30.379726,94.906975 30.709293,96.495804 31.171780,98.662514 
	C31.136427,99.055931 31.101072,99.449341 31.100313,100.278915 
	C31.183313,100.574669 31.355515,100.803230 31.856348,101.607681 
	C31.910698,102.060448 31.965048,102.513206 32.033073,103.585304 
	C33.020874,103.441574 34.008671,103.297852 35.697811,102.914307 
	C39.656601,101.559418 43.615387,100.204521 48.547424,98.972191 
	C49.851608,98.928566 51.155796,98.884949 53.161831,98.852249 
	C54.800293,99.626144 56.414516,100.457443 58.082359,101.161758 
	C61.375210,102.552292 64.697754,103.872513 68.217560,105.497475 
	C68.477600,105.371819 68.737640,105.246155 69.619614,104.806831 
	C73.051994,102.120628 76.484375,99.434425 80.230469,97.314758 
	C80.816452,97.544563 81.402435,97.774376 81.995476,98.533653 
	C82.005226,98.709930 82.014977,98.886200 81.769211,99.686707 
	C78.873726,102.468056 75.978241,105.249405 72.609047,108.178802 
	C72.308540,108.350914 72.098770,108.599586 71.642960,109.393463 
	C71.080521,109.446815 70.518089,109.500175 69.476692,109.000702 
	C67.208786,108.712357 64.940880,108.424004 62.293156,108.152527 
	C62.293156,108.152527 61.998905,107.911774 61.603928,107.454269 
	C61.218021,107.373680 60.832115,107.293083 59.776302,107.120026 
	C57.515060,106.061249 55.253819,105.002472 52.487617,103.414024 
	C50.660408,103.597488 48.833202,103.780952 46.450523,104.385544 
	C42.643490,105.952515 38.836456,107.519493 34.938267,108.461472 
	C34.377083,108.262978 33.815899,108.064484 33.254715,107.865990 
	C33.807354,108.918137 34.359997,109.970276 35.391567,111.479378 
	C35.913857,112.695129 36.436146,113.910889 37.054096,115.744453 
	C37.529755,115.969818 38.005417,116.195183 38.481079,116.420540 
	C38.534691,115.829636 38.588303,115.238724 38.868237,114.654121 
	C38.868237,114.654121 38.646427,114.699539 39.233112,114.681885 
	C39.461452,114.384193 39.689796,114.086502 40.274765,113.247948 
	C42.327740,112.093369 44.380711,110.938782 47.033218,109.807022 
	C47.354191,109.586571 47.675163,109.366112 48.822254,108.833694 
	C53.208637,109.962158 57.595020,111.090622 61.987343,112.611580 
	C61.987343,112.611580 61.995869,113.004021 62.001144,113.784607 
	C62.007065,114.304970 62.012985,114.825340 61.205452,115.388428 
	C60.136406,115.205414 59.067360,115.022400 57.824894,114.547218 
	C57.552872,114.613228 57.280849,114.679237 56.230194,114.799583 
	C51.284187,113.425598 47.002186,114.621445 42.551788,118.066132 
	C41.558987,118.319839 40.566189,118.573540 39.573387,118.827248 
	C40.106720,119.235214 40.640053,119.643181 41.087036,120.640533 
	C41.079205,121.037575 41.071369,121.434624 41.217503,122.347008 
	C41.500710,122.553215 41.783916,122.759430 42.007526,123.000641 
	C42.007526,123.000641 42.039055,122.939140 42.086903,123.651138 
	C43.447948,125.080383 44.808994,126.509636 46.693672,128.191330 
	C47.434284,128.761017 48.174896,129.330704 49.029888,130.578476 
	C49.713940,131.073288 50.397995,131.568115 50.979404,132.748978 
	C51.978504,133.495392 52.977608,134.241791 54.496540,135.220108 
	C54.998512,135.482574 55.500488,135.745041 56.682251,136.067154 
	C58.037548,137.041489 59.392841,138.015808 60.858902,139.069763 
	C60.958672,137.727722 61.053265,136.455322 61.532387,135.136383 
	C61.532387,135.136383 61.907639,135.040405 62.821609,135.041199 
	C65.551735,135.106247 68.281853,135.171295 71.384438,135.656464 
	C71.922729,135.771042 72.461021,135.885620 73.674446,136.024719 
	C74.119446,136.081024 74.564453,136.137329 75.456512,136.646713 
	C76.286255,136.772079 77.115990,136.897446 78.486031,137.050369 
	C78.660858,137.094589 78.835693,137.138809 79.535080,137.649948 
	C81.010818,137.393707 82.486557,137.137466 84.227203,136.314529 
	C84.825104,136.300369 85.422997,136.286224 86.468353,136.680862 
	C88.308876,135.852356 90.149406,135.023849 92.830719,134.044952 
	C99.060577,132.053436 104.648338,132.317535 109.128227,137.996811 
	C110.032341,139.142975 112.042633,139.416595 114.475105,140.512436 
	C113.168709,137.510498 112.491898,135.955276 112.214798,133.732193 
	C112.888748,132.962128 113.562698,132.192078 114.834724,131.857605 
	C118.257011,136.103973 120.108269,136.225128 123.432961,132.420334 
	C116.935768,130.908798 114.404945,128.204178 109.152916,117.791801 
	C110.018272,117.536667 110.883629,117.281532 112.235481,117.521217 
	C116.158669,120.408707 120.081856,123.296188 124.463272,126.639038 
	C125.640038,126.469643 126.816803,126.300247 128.721573,125.908463 
	C130.079102,125.409943 131.628082,125.167015 132.736954,124.336494 
	C133.722214,123.598557 134.219345,122.208900 134.931915,121.106895 
	C133.661957,120.858261 132.392014,120.609634 130.863876,119.817978 
	C130.235092,120.151764 129.606293,120.485558 128.399078,121.049698 
	C127.784988,121.087654 127.170891,121.125618 125.549492,121.050629 
	C124.203743,121.087524 122.857986,121.124420 121.207870,121.203529 
	C121.207870,121.203529 121.003929,120.973679 120.645844,120.500870 
	C120.275414,120.390800 119.904976,120.280724 119.196602,120.104401 
	C119.196602,120.104401 118.998352,119.822807 118.794052,119.436638 
	C118.604332,119.197472 118.359398,119.049988 117.998016,119.001740 
M66.218979,141.691238 
	C66.905205,141.823730 67.591438,141.956238 68.864868,142.176590 
	C69.913254,142.432068 70.961639,142.687546 72.763290,143.052505 
	C75.380630,143.876892 77.947075,145.119186 80.625099,145.445328 
	C87.911316,146.332672 100.737152,146.164886 105.019608,142.228928 
	C104.320374,141.750748 103.654778,141.295563 102.582123,140.406311 
	C102.198029,140.337616 101.813927,140.268936 100.814026,140.250992 
	C100.212906,140.116364 99.611786,139.981735 98.894318,139.230713 
	C97.266731,139.451202 95.639153,139.671707 93.300415,140.133789 
	C91.359894,140.474014 89.419373,140.814224 86.499840,141.040985 
	C84.230774,141.068130 81.961700,141.095261 79.108986,141.150116 
	C78.739212,141.034378 78.369446,140.918640 77.851196,140.512146 
	C77.564819,140.253876 77.292999,140.275101 76.478241,140.546890 
	C75.991028,140.342667 75.503815,140.138443 74.607567,139.407303 
	C73.024300,138.983551 71.264183,136.219223 69.520370,139.932526 
	C69.520370,139.932526 69.040283,140.041214 68.364632,139.975220 
	C67.911880,139.978317 67.459122,139.981415 66.979759,139.245377 
	C66.475365,138.557114 65.970970,137.868866 65.466591,137.180603 
	C64.956657,137.886017 64.446732,138.591431 63.461906,139.246017 
	C64.286621,139.870926 65.111328,140.495819 65.976578,141.084732 
	C65.976578,141.084732 65.953362,141.037048 66.218979,141.691238 
M171.231476,76.586823 
	C171.806900,76.768097 172.382324,76.949364 172.939865,77.046715 
	C172.939865,77.046715 172.862823,77.084488 173.038239,77.828415 
	C179.060837,81.377518 183.137451,80.501015 190.060272,74.059059 
	C190.060272,74.059059 190.141495,74.184578 190.771439,73.929649 
	C192.174576,71.619843 193.577728,69.310043 195.213943,66.710907 
	C195.213943,66.710907 195.152939,66.344421 195.682907,65.969353 
	C195.795013,65.847054 195.888153,65.692596 196.024857,65.612053 
	C196.147034,65.540070 196.422974,65.485687 196.451218,65.532379 
	C198.206558,68.433281 199.498917,71.769875 201.782211,74.160660 
	C205.558014,78.114189 210.142563,81.749413 216.078537,79.144066 
	C221.094757,76.942406 225.759995,73.865150 226.991104,67.469864 
	C224.537292,66.654274 222.410645,65.947426 220.437408,65.291573 
	C219.926880,65.816483 219.695724,66.051186 219.467789,66.288979 
	C215.457199,70.472710 211.169312,71.130196 207.764343,68.083023 
	C204.581390,65.234535 204.200424,59.460381 206.988434,56.322247 
	C209.925903,53.015842 214.723663,53.246098 218.969284,56.569088 
	C220.032608,57.401360 221.770859,57.606731 223.213898,57.655235 
	C224.798859,57.708511 226.401077,57.247814 227.984192,57.895012 
	C228.572784,64.868729 229.161377,71.842453 229.754852,78.874039 
	C235.575287,78.874039 241.295853,78.874039 247.842545,79.021744 
	C251.265533,79.751648 253.099777,78.351791 253.043625,74.595543 
	C254.365677,75.095451 255.360870,75.322166 256.199921,75.814827 
	C259.897614,77.986000 262.772430,78.290627 264.066528,73.121872 
	C264.281952,72.261482 265.885406,71.285698 266.927155,71.184616 
	C269.705750,70.915001 272.527771,71.092880 275.484619,71.092880 
	C276.288818,73.935913 276.996674,76.438423 277.854889,79.472427 
	C280.637512,78.337746 283.235626,77.278305 286.240753,76.052902 
	C283.204407,66.916130 280.357269,57.930988 277.146271,49.077797 
	C276.579620,47.515507 274.652893,45.737667 273.073212,45.408573 
	C270.322601,44.835533 267.439117,44.556400 265.776154,48.441692 
	C262.641846,55.764565 258.887512,62.826645 255.254745,69.927467 
	C254.581604,71.243187 253.267441,72.230965 252.525742,72.706696 
	C252.387131,71.790627 252.248535,70.874565 252.052734,69.424812 
	C251.718689,69.391518 251.384659,69.358223 250.183319,69.186844 
	C247.198639,69.353874 244.208771,69.458366 241.230682,69.704994 
	C238.061081,69.967491 237.551239,68.569084 238.516693,65.799484 
	C242.421906,65.614479 246.144821,65.438103 249.713837,65.269028 
	C249.713837,62.211510 249.713837,59.773994 249.713837,56.877472 
	C246.312973,56.877472 243.201828,56.986732 240.106949,56.810452 
	C239.186539,56.758026 238.311768,55.903835 237.416092,55.417004 
	C238.317612,54.757816 239.190582,53.581306 240.125656,53.529686 
	C244.013947,53.315037 247.920944,53.439449 252.111923,53.439449 
	C251.836105,50.011185 251.640579,47.580746 251.443283,45.128353 
	C243.687424,45.128353 236.306793,45.128353 228.532074,45.128353 
	C228.318069,48.326580 228.133026,51.092216 227.260376,53.836945 
	C220.348297,44.687122 212.182755,42.212986 204.381149,47.715271 
	C200.963165,50.125885 198.635406,54.082291 195.851471,57.291946 
	C195.136932,56.156971 194.111984,54.528900 193.056076,52.943844 
	C193.056076,52.943844 193.107101,52.932491 192.945999,52.275452 
	C190.647110,50.488018 188.348236,48.700584 186.028336,46.996799 
	C186.028336,46.996799 186.092422,46.939079 185.578171,46.364082 
	C179.547546,44.134392 173.924591,44.519047 168.990372,49.001919 
	C168.990372,49.001919 168.962311,48.937191 168.351212,49.117859 
	C167.403427,50.198654 166.455658,51.279453 165.454544,52.486099 
	C165.454544,52.486099 165.355881,52.580696 164.921371,52.958420 
	C164.606812,53.638973 164.292267,54.319527 163.783478,55.152008 
	C163.783478,55.152008 163.848724,55.389816 163.259979,55.952412 
	C163.118256,58.851795 162.976532,61.751175 162.588852,65.096817 
	C162.729004,65.397873 162.869156,65.698929 162.974197,66.712555 
	C164.316956,68.806564 165.659714,70.900566 167.000000,73.000000 
	C167.000000,73.000000 167.005417,72.997597 167.248383,73.598679 
	C168.477753,74.433708 169.707138,75.268738 170.971924,76.011543 
	C170.971924,76.011543 170.894821,76.073296 171.231476,76.586823 
M230.502899,91.042191 
	C230.338516,91.095268 230.174118,91.148354 229.136642,91.080238 
	C227.098785,91.225838 225.060913,91.371445 222.235947,91.311951 
	C221.170532,91.440636 220.105133,91.569321 218.501587,91.485596 
	C217.818787,91.514359 217.135986,91.543121 216.383987,91.761765 
	C216.383987,91.761765 216.385895,91.559677 216.066879,91.113815 
	C215.714432,91.104843 215.361984,91.095879 214.140366,90.936966 
	C212.087189,91.011368 210.033997,91.085762 207.199768,91.011391 
	C206.147110,91.085274 205.094467,91.159157 203.120193,91.102028 
	C198.736008,91.382744 194.351837,91.663460 189.466095,92.009438 
	C189.446594,92.320129 189.427094,92.630814 189.270737,93.747009 
	C189.556229,95.816414 189.841736,97.885811 190.173950,100.293800 
	C193.245621,100.293800 195.972961,100.293800 199.207764,100.293800 
	C199.207764,108.135773 199.207764,115.563232 199.132690,123.806816 
	C201.930710,125.206581 204.654037,125.934410 207.561279,122.202133 
	C207.561279,114.863731 207.561279,107.525337 207.561279,100.087807 
	C211.532516,99.832565 214.793732,99.622963 218.120590,99.809166 
	C218.120590,99.809166 218.517776,99.865845 218.330933,100.554405 
	C218.484070,101.718338 218.637207,102.882263 218.597717,104.687531 
	C218.698746,105.118401 218.799789,105.549271 218.684082,106.891991 
	C218.843475,111.252258 219.002869,115.612526 219.028488,120.481842 
	C219.069412,120.652451 219.110321,120.823059 219.002838,121.673897 
	C219.842087,122.476852 220.688477,123.966492 221.519287,123.957848 
	C224.349884,123.928406 227.174988,123.370949 230.663544,123.189476 
	C231.110519,123.118782 231.557510,123.048088 232.896591,123.161621 
	C235.927399,123.060928 238.958191,122.960236 242.308548,123.623199 
	C242.905624,124.102821 243.499832,124.996887 244.100235,125.001060 
	C256.966339,125.090408 269.833313,125.103104 282.699097,125.000854 
	C283.189240,124.996964 283.669098,123.695885 284.270447,122.485542 
	C284.215515,122.318756 284.160553,122.151978 284.341644,121.654938 
	C284.341644,121.654938 284.392944,121.252251 284.957977,121.213768 
	C285.323608,121.120277 285.689209,121.026787 286.764557,121.166168 
	C290.657593,123.016327 294.562378,125.131226 296.192017,118.518974 
	C296.353058,117.865456 297.998322,117.254662 298.991180,117.190804 
	C301.780945,117.011391 304.589752,117.128227 307.469269,117.128227 
	C308.181000,119.496254 308.787842,121.515244 309.372925,123.461845 
	C312.311981,123.136879 315.126495,122.825684 318.371613,122.466881 
	C315.182983,112.908150 312.310516,103.940109 309.118347,95.087349 
	C308.599915,93.649529 306.757965,91.893730 305.364807,91.737419 
	C302.725800,91.441322 299.646454,90.303352 297.860535,94.322304 
	C294.161469,102.646454 289.906250,110.723488 285.366638,118.892204 
	C285.028961,118.854202 284.691284,118.816200 284.339417,117.896652 
	C283.492706,117.240738 282.689270,116.098473 281.791290,116.018547 
	C278.899475,115.761147 275.972870,115.895432 272.957672,114.961235 
	C272.957672,107.238953 272.957672,99.516663 272.957672,91.644768 
	C269.637299,91.644768 267.052338,91.644768 263.976227,91.644768 
	C263.976227,96.974770 264.101685,102.072021 263.930695,107.159309 
	C263.822540,110.377411 263.272125,113.580643 262.088531,116.894356 
	C260.411804,116.896866 258.735046,116.899376 256.745544,116.295677 
	C255.005844,115.781090 253.266144,115.266510 251.444122,113.852440 
	C251.444122,106.484138 251.444122,99.115845 251.444122,91.021942 
	C248.071579,92.762291 244.238052,88.889099 242.232925,93.937233 
	C241.863937,93.960152 241.494965,93.983070 241.059082,93.334961 
	C240.991867,92.892746 240.924667,92.450523 240.667252,91.167587 
	C237.446991,91.166534 234.226746,91.165489 230.502899,91.042191 
M309.727814,49.147556 
	C309.711914,49.268238 309.657562,49.399826 309.688080,49.507336 
	C309.751526,49.731010 309.859985,49.941929 309.736328,51.014656 
	C309.785370,53.662418 309.834412,56.310184 309.597992,59.562531 
	C309.457458,60.300186 309.316925,61.037846 309.031189,62.537636 
	C305.520782,57.974865 302.112091,54.300137 299.604767,50.088768 
	C296.655182,45.134548 292.695618,44.014168 287.484528,45.174431 
	C287.484528,56.556271 287.484528,67.942780 287.484528,79.767532 
	C290.519745,79.596985 293.088593,79.452637 295.986084,79.289825 
	C295.986084,73.111237 295.986084,67.384666 295.986084,60.386078 
	C300.815887,66.923180 304.911163,72.466103 308.968872,78.628716 
	C309.319092,78.774612 309.669281,78.920509 310.646301,79.339973 
	C311.086578,79.265656 311.526855,79.191345 312.721069,79.319595 
	C313.491760,79.248764 314.262451,79.177940 315.730316,79.343056 
	C319.937286,78.384567 317.238770,75.160072 317.972412,72.081497 
	C317.972412,63.073063 317.972412,54.064629 317.972412,44.849148 
	C315.982178,44.980461 314.510529,45.077560 312.366241,45.029160 
	C311.914642,45.087494 311.463074,45.145832 310.266815,45.271587 
	C310.163025,46.468472 310.059204,47.665352 309.727814,49.147556 
M175.380692,124.945854 
	C177.004898,124.326424 178.603790,123.627274 180.257889,123.101982 
	C186.062500,121.258614 188.967804,117.196701 188.277725,111.777802 
	C187.668259,106.991852 183.838974,104.224892 177.822113,103.924881 
	C175.819885,103.825043 173.846222,103.152016 171.859497,102.741028 
	C172.011276,102.026405 172.163055,101.311775 172.314835,100.597145 
	C175.184525,101.170090 178.035660,101.903725 180.932892,102.237907 
	C182.113159,102.374031 183.850891,102.029182 184.530228,101.224098 
	C185.828995,99.684959 186.551254,97.659340 187.479980,95.897789 
	C181.109467,90.774406 174.369125,89.751045 168.850250,93.045258 
	C164.962631,95.365768 162.627991,98.762123 163.501709,103.408707 
	C164.977982,111.259834 170.841080,113.286949 178.942734,113.128883 
	C174.373810,118.419785 171.041962,114.719719 167.488434,113.038551 
	C165.665955,115.188042 163.942215,117.221069 161.374420,120.249588 
	C166.499023,122.074539 170.530548,123.510231 175.380692,124.945854 
z"/>
<path fill="#193C6B" opacity="1.000000" stroke="none" 
	d="
M30.185780,92.480057 
	C30.185780,92.480057 30.338526,92.231636 30.331629,91.860870 
	C30.255119,91.326279 30.185509,91.162460 30.115898,90.998634 
	C30.317196,86.271080 30.518496,81.543533 30.824059,76.078949 
	C30.898176,74.898567 30.868032,74.455231 30.837887,74.011887 
	C35.085793,56.206207 44.346066,41.948761 60.624802,32.964779 
	C92.576912,15.330907 133.044235,32.608559 142.885071,67.950409 
	C143.196671,69.069466 143.526367,70.183487 143.948944,71.995338 
	C144.289398,73.315613 144.528534,73.940407 144.767670,74.565201 
	C144.762009,79.954597 144.756348,85.343994 143.984100,90.955246 
	C140.411072,91.218758 137.561111,91.596146 134.806396,91.238991 
	C126.617226,90.177246 119.412102,86.532303 112.085312,82.847252 
	C104.704346,79.134949 96.617973,76.205208 88.593285,81.786438 
	C84.319069,84.759178 80.097672,87.843658 76.115128,91.190315 
	C71.759583,94.850441 67.114037,95.779282 62.385311,92.705383 
	C55.393818,88.160545 48.596233,88.317459 41.084297,91.431213 
	C37.860443,92.767517 33.842781,92.188728 30.185780,92.480057 
z"/>
<path fill="#234070" opacity="1.000000" stroke="none" 
	d="
M317.809082,73.008217 
	C317.238770,75.160072 319.937286,78.384567 315.199890,78.956070 
	C313.768707,78.751724 312.867920,78.934364 311.967133,79.117020 
	C311.526855,79.191345 311.086578,79.265656 310.226135,78.973114 
	C309.539459,78.407181 309.272949,78.208107 309.006439,78.009026 
	C304.911163,72.466103 300.815887,66.923180 295.986084,60.386078 
	C295.986084,67.384666 295.986084,73.111237 295.986084,79.289825 
	C293.088593,79.452637 290.519745,79.596985 287.484528,79.767532 
	C287.484528,67.942780 287.484528,56.556271 287.484528,45.174431 
	C292.695618,44.014168 296.655182,45.134548 299.604767,50.088768 
	C302.112091,54.300137 305.520782,57.974865 309.031189,62.537636 
	C309.316925,61.037846 309.457458,60.300186 310.064331,58.999985 
	C310.690918,54.026352 310.851196,49.615257 311.011475,45.204163 
	C311.463074,45.145832 311.914642,45.087494 312.965332,45.349003 
	C314.707336,47.344700 316.751099,48.975807 316.836945,50.704166 
	C317.205353,58.120388 316.997681,65.565231 316.794922,73.122238 
	C316.605133,73.593765 316.620392,73.942696 316.635651,74.291618 
	C316.757263,73.861282 316.878876,73.430946 317.202637,73.002274 
	C317.404785,73.003937 317.809082,73.008217 317.809082,73.008217 
z"/>
<path fill="#234070" opacity="1.000000" stroke="none" 
	d="
M227.947968,53.857853 
	C228.133026,51.092216 228.318069,48.326580 228.532074,45.128353 
	C236.306793,45.128353 243.687424,45.128353 251.443283,45.128353 
	C251.640579,47.580746 251.836105,50.011185 252.111923,53.439449 
	C247.920944,53.439449 244.013947,53.315037 240.125656,53.529686 
	C239.190582,53.581306 238.317612,54.757816 237.416092,55.417007 
	C238.311768,55.903835 239.186539,56.758026 240.106949,56.810452 
	C243.201828,56.986732 246.312973,56.877472 249.713837,56.877472 
	C249.713837,59.773994 249.713837,62.211510 249.713837,65.269028 
	C246.144821,65.438103 242.421906,65.614479 238.516693,65.799484 
	C237.551239,68.569084 238.061081,69.967491 241.230682,69.704994 
	C244.208771,69.458366 247.198639,69.353874 250.753815,69.419579 
	C251.553711,69.837677 251.815582,69.939735 252.109924,69.958496 
	C252.248535,70.874565 252.387131,71.790627 252.280273,73.310692 
	C250.362000,75.567802 248.689209,77.220924 247.016418,78.874039 
	C241.295853,78.874039 235.575287,78.874039 229.754852,78.874039 
	C229.161377,71.842453 228.572784,64.868729 227.991226,57.058800 
	C227.981491,55.434345 227.964737,54.646099 227.947968,53.857853 
z"/>
<path fill="#264171" opacity="1.000000" stroke="none" 
	d="
M247.429474,78.947891 
	C248.689209,77.220924 250.362000,75.567802 252.141968,73.642395 
	C253.267441,72.230965 254.581604,71.243187 255.254745,69.927467 
	C258.887512,62.826645 262.641846,55.764565 265.776154,48.441692 
	C267.439117,44.556400 270.322601,44.835533 273.073212,45.408573 
	C274.652893,45.737667 276.579620,47.515507 277.146271,49.077797 
	C280.357269,57.930988 283.204407,66.916130 286.240753,76.052902 
	C283.235626,77.278305 280.637512,78.337746 277.854889,79.472427 
	C276.996674,76.438423 276.288818,73.935913 275.484619,71.092880 
	C272.527771,71.092880 269.705750,70.915001 266.927155,71.184616 
	C265.885406,71.285698 264.281952,72.261482 264.066528,73.121872 
	C262.772430,78.290627 259.897614,77.986000 256.199921,75.814827 
	C255.360870,75.322166 254.365677,75.095451 253.043625,74.595543 
	C253.099777,78.351791 251.265533,79.751648 247.429474,78.947891 
z"/>
<path fill="#25406F" opacity="1.000000" stroke="none" 
	d="
M227.604172,53.847397 
	C227.964737,54.646099 227.981491,55.434345 227.997025,56.616829 
	C226.401077,57.247814 224.798859,57.708511 223.213898,57.655235 
	C221.770859,57.606731 220.032608,57.401360 218.969284,56.569088 
	C214.723663,53.246098 209.925903,53.015842 206.988434,56.322247 
	C204.200424,59.460381 204.581390,65.234535 207.764343,68.083023 
	C211.169312,71.130196 215.457199,70.472710 219.467789,66.288979 
	C219.695724,66.051186 219.926880,65.816483 220.437408,65.291573 
	C222.410645,65.947426 224.537292,66.654274 226.991104,67.469864 
	C225.759995,73.865150 221.094757,76.942406 216.078537,79.144066 
	C210.142563,81.749413 205.558014,78.114189 201.782211,74.160660 
	C199.498917,71.769875 198.206558,68.433281 196.451218,65.532379 
	C196.422974,65.485687 196.147034,65.540070 196.024857,65.612053 
	C195.888153,65.692596 195.795013,65.847054 195.375244,65.717743 
	C194.928223,63.846222 195.411255,61.446396 194.536362,60.748249 
	C191.553818,58.368240 192.696289,55.654202 193.087036,52.900829 
	C194.111984,54.528900 195.136932,56.156971 195.851471,57.291946 
	C198.635406,54.082291 200.963165,50.125885 204.381149,47.715271 
	C212.182755,42.212986 220.348297,44.687122 227.604172,53.847397 
z"/>
<path fill="#25406F" opacity="1.000000" stroke="none" 
	d="
M174.971375,124.945892 
	C170.530548,123.510231 166.499023,122.074539 161.374420,120.249588 
	C163.942215,117.221069 165.665955,115.188042 167.488434,113.038551 
	C171.041962,114.719719 174.373810,118.419785 178.942734,113.128883 
	C170.841080,113.286949 164.977982,111.259834 163.501709,103.408707 
	C162.627991,98.762123 164.962631,95.365768 168.850250,93.045258 
	C174.369125,89.751045 181.109467,90.774406 187.479980,95.897789 
	C186.551254,97.659340 185.828995,99.684959 184.530228,101.224098 
	C183.850891,102.029182 182.113159,102.374031 180.932892,102.237907 
	C178.035660,101.903725 175.184525,101.170090 172.314835,100.597145 
	C172.163055,101.311775 172.011276,102.026405 171.859497,102.741028 
	C173.846222,103.152016 175.819885,103.825043 177.822113,103.924881 
	C183.838974,104.224892 187.668259,106.991852 188.277725,111.777802 
	C188.967804,117.196701 186.062500,121.258614 180.257889,123.101982 
	C178.603790,123.627274 177.004898,124.326424 174.971375,124.945892 
z"/>
<path fill="#223E6E" opacity="1.000000" stroke="none" 
	d="
M285.879730,118.902130 
	C289.906250,110.723488 294.161469,102.646454 297.860535,94.322304 
	C299.646454,90.303352 302.725800,91.441322 305.364807,91.737419 
	C306.757965,91.893730 308.599915,93.649529 309.118347,95.087349 
	C312.310516,103.940109 315.182983,112.908150 318.371613,122.466881 
	C315.126495,122.825684 312.311981,123.136879 309.372925,123.461845 
	C308.787842,121.515244 308.181000,119.496254 307.469269,117.128227 
	C304.589752,117.128227 301.780945,117.011391 298.991180,117.190804 
	C297.998322,117.254662 296.353058,117.865456 296.192017,118.518974 
	C294.562378,125.131226 290.657593,123.016327 286.370667,120.711563 
	C285.944397,119.805344 285.912079,119.353737 285.879730,118.902130 
z"/>
<path fill="#EFF5F9" opacity="1.000000" stroke="none" 
	d="
M30.117970,92.899101 
	C33.842781,92.188728 37.860443,92.767517 41.084297,91.431213 
	C48.596233,88.317459 55.393818,88.160545 62.385311,92.705383 
	C67.114037,95.779282 71.759583,94.850441 76.115128,91.190315 
	C80.097672,87.843658 84.319069,84.759178 88.593285,81.786438 
	C96.617973,76.205208 104.704346,79.134949 112.085312,82.847252 
	C119.412102,86.532303 126.617226,90.177246 134.806396,91.238991 
	C137.561111,91.596146 140.411072,91.218758 143.616730,91.212494 
	C144.015976,91.247894 144.026550,91.601006 144.018433,92.173271 
	C144.005463,93.796082 144.000610,94.846619 143.596481,96.002617 
	C139.907410,96.141663 136.401962,96.925575 133.372086,96.054749 
	C126.790039,94.162987 120.450813,91.426369 113.993599,88.780853 
	C113.816597,88.256012 113.658310,87.985458 113.500015,87.714905 
	C113.324173,88.152809 113.148323,88.590721 112.972481,89.028625 
	C112.214195,88.513382 111.455910,87.998131 110.327118,86.940193 
	C101.762352,79.709015 91.226212,79.236717 81.972977,89.303970 
	C79.553169,92.041161 77.265701,94.450783 75.072189,96.943085 
	C71.714920,100.757652 67.772072,101.158745 63.384808,99.064461 
	C61.740204,98.279404 60.121429,97.426575 58.550690,96.502930 
	C53.455795,93.506981 48.587284,93.219421 42.992584,95.919670 
	C39.478336,97.615799 35.054577,97.427498 31.038858,98.084633 
	C30.709293,96.495804 30.379726,94.906975 30.117970,92.899101 
z"/>
<path fill="#233F6F" opacity="1.000000" stroke="none" 
	d="
M199.207764,122.990692 
	C199.207764,115.563232 199.207764,108.135773 199.207764,100.293800 
	C195.972961,100.293800 193.245621,100.293800 190.173950,100.293800 
	C189.841736,97.885811 189.556229,95.816414 189.489532,93.214905 
	C189.876480,92.465286 189.962921,92.219078 189.967651,91.944183 
	C194.351837,91.663460 198.736008,91.382744 203.811172,91.383926 
	C205.661713,91.497276 206.821259,91.328720 207.980820,91.160164 
	C210.033997,91.085762 212.087189,91.011368 214.745773,91.222771 
	C215.696091,91.525604 216.040985,91.542641 216.385895,91.559677 
	C216.385895,91.559677 216.383987,91.761765 216.276718,92.063705 
	C216.806702,94.268150 217.443970,96.170654 218.067017,98.296692 
	C218.042175,98.817963 218.042892,99.115677 218.054947,99.413361 
	C214.793732,99.622963 211.532516,99.832565 207.561279,100.087807 
	C207.561279,107.525337 207.561279,114.863731 206.891632,122.578796 
	C203.883911,122.967209 201.545837,122.978951 199.207764,122.990692 
z"/>
<path fill="#244070" opacity="1.000000" stroke="none" 
	d="
M193.071564,52.922337 
	C192.696289,55.654202 191.553818,58.368240 194.536362,60.748249 
	C195.411255,61.446396 194.928223,63.846222 195.110260,65.905273 
	C195.152939,66.344421 195.213943,66.710907 194.709229,66.902718 
	C191.049286,68.403915 188.739273,68.647400 188.890213,63.952785 
	C188.942642,62.321930 187.742035,60.650787 186.990967,58.851902 
	C186.868210,58.705761 186.882629,58.324318 186.911041,57.916306 
	C186.960632,54.519588 185.398178,53.659550 182.766418,54.376312 
	C182.846359,54.408337 182.675507,54.386475 182.730331,54.014763 
	C180.041870,51.281250 177.374847,49.808887 175.189972,54.239143 
	C175.161545,54.186493 175.280212,54.201981 175.010742,54.231972 
	C174.496002,54.514282 174.250748,54.766598 173.867340,55.269241 
	C173.166412,56.017757 172.603653,56.515949 171.648224,57.093914 
	C169.840515,60.595768 168.069107,64.054359 172.497009,67.027710 
	C173.547638,67.885284 174.353500,68.618088 175.279755,69.738159 
	C177.577133,70.004623 179.754120,69.883820 182.083252,69.545738 
	C182.738617,69.180611 183.241867,69.032768 184.145035,68.917252 
	C187.984695,69.011642 189.805588,70.804344 190.141495,74.184578 
	C190.141495,74.184578 190.060272,74.059059 189.698807,74.058212 
	C187.971024,74.391808 185.675568,74.379494 185.399002,75.120598 
	C184.192719,78.353127 181.714417,78.131500 179.231979,77.966286 
	C177.098816,77.824310 174.985123,77.389702 172.862823,77.084488 
	C172.862823,77.084488 172.939865,77.046715 172.796249,76.812866 
	C172.066696,76.410439 171.480759,76.241867 170.894821,76.073296 
	C170.894821,76.073296 170.971924,76.011543 170.937469,75.693611 
	C169.603806,74.582985 168.304611,73.790291 167.005417,72.997597 
	C167.005417,72.997597 167.000000,73.000000 167.000214,72.608994 
	C165.670059,70.145325 164.339691,68.072655 163.009308,65.999992 
	C162.869156,65.698929 162.729004,65.397873 162.784119,64.410400 
	C163.269165,60.945923 163.558945,58.167870 163.848724,55.389816 
	C163.848724,55.389816 163.783478,55.152008 164.235657,55.014282 
	C164.910522,54.111271 165.133209,53.345982 165.355881,52.580696 
	C165.355881,52.580696 165.454544,52.486099 165.848267,52.584953 
	C167.148758,51.434929 168.055527,50.186058 168.962311,48.937187 
	C168.962311,48.937191 168.990372,49.001919 169.384430,48.992950 
	C175.216476,48.302349 180.654449,47.620716 186.092422,46.939079 
	C186.092422,46.939079 186.028336,46.996799 186.058914,47.319717 
	C187.491638,50.649029 188.816757,53.757614 193.107101,52.932491 
	C193.107101,52.932491 193.056076,52.943844 193.071564,52.922337 
z"/>
<path fill="#1B3A6E" opacity="1.000000" stroke="none" 
	d="
M218.087769,99.611267 
	C218.042892,99.115677 218.042175,98.817963 218.304016,98.116226 
	C218.723572,97.150566 218.891907,96.588898 219.407928,95.980194 
	C220.844788,94.461121 221.933929,92.989090 223.023056,91.517059 
	C225.060913,91.371445 227.098785,91.225838 229.691345,91.325104 
	C230.454269,91.787598 230.705109,91.930321 231.448975,91.999176 
	C234.885391,92.002914 237.871429,92.005615 240.857452,92.008308 
	C240.924667,92.450523 240.991867,92.892746 241.001190,93.596703 
	C240.943298,93.858444 240.741776,93.979187 240.568298,94.150299 
	C240.526917,94.869911 240.658981,95.418404 240.856262,96.305023 
	C240.936386,97.101372 240.951324,97.559601 240.957565,98.046417 
	C240.948868,98.075005 240.929413,98.131523 240.706055,98.225494 
	C240.217697,98.532394 240.052582,98.805710 239.665497,99.250160 
	C238.900284,99.294090 238.456970,99.227287 237.931458,98.972412 
	C237.588654,98.923767 237.328049,99.063194 236.723022,99.361618 
	C234.590881,99.453941 232.803146,99.387268 230.919830,99.063400 
	C229.876663,99.009254 228.929077,99.212303 227.700562,99.609665 
	C227.200760,100.198730 226.981888,100.593483 226.511597,101.021347 
	C226.532394,101.695045 226.804581,102.335648 227.319061,103.017578 
	C227.561356,103.058907 228.027786,103.214172 228.347229,103.461090 
	C230.788437,103.809143 232.992264,103.599953 235.000412,104.130844 
	C236.156708,104.436539 236.996475,105.939560 237.978729,106.903625 
	C236.907272,107.946373 236.008087,109.387627 234.725540,109.942093 
	C232.594742,110.863274 230.217728,111.214928 227.780212,112.105331 
	C227.497391,112.598137 227.378754,112.792061 227.041290,113.069473 
	C227.045334,113.773376 227.268188,114.393791 227.654938,115.224037 
	C227.890945,115.596039 227.963074,115.758224 228.026077,116.295326 
	C228.279282,117.954308 228.541626,119.238358 228.667221,119.853104 
	C231.790451,118.750305 234.215225,117.621132 236.762207,117.142822 
	C237.654068,116.975349 238.846573,118.409004 239.901794,119.111496 
	C238.978088,120.060371 238.215225,121.371544 237.091690,121.870316 
	C235.538269,122.559929 233.713211,122.637642 232.004486,122.977402 
	C231.557510,123.048088 231.110519,123.118782 230.064835,122.814392 
	C226.027817,121.957420 222.589523,121.475540 219.151215,120.993652 
	C219.110321,120.823059 219.069412,120.652451 219.355911,119.912140 
	C219.422501,114.888329 219.161667,110.434235 218.900833,105.980133 
	C218.799789,105.549271 218.698746,105.118401 218.980576,104.187782 
	C219.081543,102.413971 218.799667,101.139908 218.517776,99.865845 
	C218.517776,99.865845 218.120590,99.809166 218.087769,99.611267 
z"/>
<path fill="#F2F9FB" opacity="1.000000" stroke="none" 
	d="
M134.047607,109.116394 
	C134.033630,109.530754 134.019669,109.945122 133.551071,110.755951 
	C123.976341,112.141708 116.509766,109.841072 111.572670,101.317619 
	C110.248924,99.032295 107.610146,97.386383 105.327850,95.803322 
	C100.110687,92.184540 96.356155,92.683067 92.486496,97.613693 
	C89.934708,100.865120 88.198357,104.835968 85.346184,107.749901 
	C82.481560,110.676552 78.686424,112.692421 74.918121,115.070892 
	C73.366219,115.300720 72.195267,115.567085 70.598053,115.917313 
	C68.440071,115.927673 66.708359,115.854156 64.740112,115.584610 
	C64.102722,115.386894 63.701862,115.385201 63.098778,115.515167 
	C62.549179,115.705864 62.256630,115.605492 62.018906,115.345703 
	C62.012985,114.825340 62.007065,114.304970 62.336582,113.394402 
	C63.122570,112.999741 63.573116,112.995277 64.450500,112.998215 
	C66.585663,113.003845 68.294006,113.002083 70.345474,113.005707 
	C71.450516,112.645424 72.212418,112.279762 73.128098,111.595108 
	C76.517456,108.515312 79.753036,105.754509 83.212326,102.884872 
	C83.713638,102.569931 83.897926,102.300087 84.062729,101.645721 
	C84.511604,100.552750 84.886658,99.780556 85.558891,98.943840 
	C86.024239,98.395973 86.192398,97.912636 86.360558,97.429291 
	C84.903175,97.620918 83.445801,97.812546 81.988419,98.004181 
	C81.402435,97.774376 80.816452,97.544563 80.170349,96.723206 
	C81.487152,94.244362 82.864067,92.357086 84.533493,90.287750 
	C87.469322,88.373222 90.112640,86.640739 92.979576,84.898079 
	C93.508957,84.821785 93.755043,84.663116 94.209862,84.315079 
	C94.667458,84.238121 94.856651,84.258003 95.361778,84.507690 
	C97.288498,84.781738 98.899277,84.825974 100.872704,84.855431 
	C103.815735,85.897072 106.396118,86.953499 108.976501,88.009933 
	C108.405525,88.480042 107.834557,88.950157 106.806084,89.599472 
	C99.120354,85.529716 95.689194,85.786903 89.731293,91.001770 
	C89.489502,90.997437 89.005875,91.006180 88.692108,91.156555 
	C87.561264,92.598953 86.744179,93.890984 85.927101,95.183014 
	C86.455147,95.543121 86.983192,95.903236 87.511238,96.263351 
	C88.341629,95.176582 89.172020,94.089821 90.304451,92.969696 
	C91.073647,92.367867 91.540817,91.799393 92.394501,91.074059 
	C96.364845,90.999786 100.088051,90.517685 103.485237,91.356285 
	C105.895691,91.951309 107.865997,94.329369 110.178261,96.224503 
	C115.836464,101.342621 121.637985,105.639870 129.203827,107.463905 
	C130.943985,108.213745 132.495804,108.665070 134.047607,109.116394 
z"/>
<path fill="#324D6F" opacity="1.000000" stroke="none" 
	d="
M64.976639,115.780640 
	C66.708359,115.854156 68.440071,115.927673 70.965157,115.973343 
	C72.938705,115.666138 74.118889,115.386787 75.299065,115.107422 
	C78.686424,112.692421 82.481560,110.676552 85.346184,107.749901 
	C88.198357,104.835968 89.934708,100.865120 92.486496,97.613693 
	C96.356155,92.683067 100.110687,92.184540 105.327850,95.803322 
	C107.610146,97.386383 110.248924,99.032295 111.572670,101.317619 
	C116.509766,109.841072 123.976341,112.141708 133.549927,111.066925 
	C135.679260,111.215347 137.355118,111.449272 139.030975,111.683197 
	C139.177505,112.028519 139.324036,112.373848 139.470581,112.719170 
	C138.543549,113.297020 137.616531,113.874870 136.052643,114.450653 
	C135.114029,114.562500 134.812286,114.676399 134.510529,114.790298 
	C133.249359,114.836845 131.988190,114.883385 129.985611,114.976730 
	C128.297592,115.282944 127.350975,115.542336 126.404358,115.801727 
	C120.555550,117.133423 117.806152,113.041359 114.518585,108.713219 
	C113.112007,107.081314 112.085152,105.962791 110.936325,104.538834 
	C108.312485,102.114052 105.810600,99.994690 103.167229,97.649323 
	C102.688370,97.356506 102.350998,97.289680 101.647995,97.095665 
	C100.520767,97.028168 99.759171,97.087860 98.703087,97.123367 
	C98.115219,97.342751 97.821831,97.586311 97.358177,97.870705 
	C97.187904,97.911537 96.995224,98.203972 96.770248,98.233704 
	C96.258926,98.438934 96.120850,98.694527 95.829102,99.190994 
	C90.767235,105.615616 87.425568,113.124138 79.701332,117.049072 
	C78.922562,117.362045 78.440285,117.672615 77.707169,117.983795 
	C77.301949,118.048729 77.147583,118.113052 76.685776,118.148438 
	C76.040497,118.330818 75.702682,118.542122 75.237854,118.676361 
	C74.788101,118.741249 74.465363,118.883202 73.676132,118.971497 
	C69.910667,118.789001 66.552322,119.008919 63.324982,118.459396 
	C56.413414,117.282547 49.824669,116.907509 44.263924,122.287224 
	C43.772251,122.762886 42.792252,122.733803 42.039055,122.939148 
	C42.039055,122.939140 42.007526,123.000641 41.949722,122.730453 
	C41.615791,122.250725 41.339664,122.041191 41.063534,121.831665 
	C41.071369,121.434624 41.079205,121.037575 41.430473,120.289490 
	C42.289005,119.337494 42.804100,118.736534 43.319195,118.135582 
	C47.002186,114.621445 51.284187,113.425598 56.860130,114.867142 
	C57.659477,114.902924 57.828896,114.871155 57.998314,114.839378 
	C59.067360,115.022400 60.136406,115.205414 61.612179,115.367065 
	C62.256630,115.605492 62.549179,115.705864 63.325859,115.724167 
	C64.162323,115.794556 64.569481,115.787598 64.976639,115.780640 
z"/>
<path fill="#2C4775" opacity="1.000000" stroke="none" 
	d="
M284.392944,121.252251 
	C284.392944,121.252251 284.341644,121.654938 283.907288,121.835892 
	C282.976288,122.355087 282.479706,122.693329 281.519165,123.090652 
	C275.369598,123.098259 269.683990,123.046768 264.001495,122.591690 
	C263.643097,120.388916 263.281555,118.589729 262.920044,116.790535 
	C263.272125,113.580643 263.822540,110.377411 263.930695,107.159309 
	C264.101685,102.072021 263.976227,96.974770 263.976227,91.644768 
	C267.052338,91.644768 269.637299,91.644768 272.957672,91.644768 
	C272.957672,99.516663 272.957672,107.238953 273.055725,115.803055 
	C274.732697,117.057129 276.628448,118.231041 277.828186,117.731918 
	C280.841827,116.478157 282.396881,117.720650 283.945435,120.302399 
	C284.171356,120.840073 284.282166,121.046158 284.392944,121.252251 
z"/>
<path fill="#1D3B6D" opacity="1.000000" stroke="none" 
	d="
M262.504272,116.842445 
	C263.281555,118.589729 263.643097,120.388916 263.535278,122.642700 
	C256.570526,123.097290 250.075119,123.097290 243.411179,123.097290 
	C243.165054,120.346207 242.964508,118.104599 242.799225,115.406281 
	C242.840744,110.816628 242.990936,106.676003 242.770782,102.555161 
	C242.699081,101.213303 241.660843,99.923096 241.038620,98.487625 
	C241.012589,98.365990 240.929413,98.131523 240.929413,98.131523 
	C240.929413,98.131523 240.948868,98.075005 241.351532,98.307335 
	C242.098282,96.985123 242.442398,95.430580 242.786499,93.876038 
	C244.238052,88.889099 248.071579,92.762291 251.444122,91.021942 
	C251.444122,99.115845 251.444122,106.484138 251.356766,114.695145 
	C253.199051,115.992531 255.128677,116.447205 257.058319,116.901886 
	C258.735046,116.899376 260.411804,116.896866 262.504272,116.842445 
z"/>
<path fill="#E9F0F6" opacity="1.000000" stroke="none" 
	d="
M114.236649,131.422012 
	C113.562698,132.192078 112.888748,132.962128 111.661133,134.018616 
	C101.540695,124.545128 104.404068,125.051086 90.372475,131.621796 
	C89.627220,131.970779 88.881416,132.324844 88.165298,132.728729 
	C82.785751,135.762787 77.409599,135.083542 72.233521,132.523132 
	C72.958313,131.538834 73.478943,130.772537 74.447144,129.948639 
	C81.639305,130.327286 88.035393,129.843109 92.527847,123.265152 
	C94.386856,122.528954 95.916092,121.960373 97.357735,121.220993 
	C102.401031,118.634354 105.823441,119.473885 109.143692,124.190666 
	C110.840752,126.601532 112.538963,129.011597 114.236649,131.422012 
z"/>
<path fill="#2F486C" opacity="1.000000" stroke="none" 
	d="
M111.589355,111.150230 
	C113.215836,113.329605 114.842323,115.508980 116.827972,118.076141 
	C117.368317,118.779663 117.640907,118.938499 118.004921,118.940422 
	C118.004921,118.940422 117.998016,119.001740 118.085800,119.228546 
	C118.366692,119.761414 118.641609,119.883904 118.998352,119.822807 
	C118.998352,119.822807 119.196602,120.104401 119.531509,120.390335 
	C120.245583,120.775406 120.624756,120.874542 121.003929,120.973679 
	C121.003929,120.973679 121.207870,121.203529 121.657867,121.433060 
	C123.590843,121.496262 125.073822,121.329926 126.556801,121.163589 
	C127.170891,121.125618 127.784988,121.087654 128.973145,120.982834 
	C130.072174,120.730988 130.597107,120.545998 131.122055,120.361008 
	C132.392014,120.609634 133.661957,120.858261 134.931915,121.106895 
	C134.219345,122.208900 133.722214,123.598557 132.736954,124.336494 
	C131.628082,125.167015 130.079102,125.409943 127.961098,125.961739 
	C126.135429,126.071236 125.070236,126.127457 124.005043,126.183678 
	C120.081856,123.296188 116.158669,120.408707 111.912300,116.951736 
	C110.457352,114.764877 109.377960,113.107697 108.184212,111.537445 
	C104.282845,106.405670 101.438904,106.175316 96.908913,110.619286 
	C93.733498,113.734406 90.765152,117.086182 87.385910,119.957512 
	C85.613792,121.463287 83.156441,122.162605 80.670624,123.184090 
	C79.563728,123.450272 78.794746,123.758484 77.672287,124.035797 
	C76.583572,123.539932 75.848328,123.074966 74.983833,122.528259 
	C76.567970,121.969986 77.855476,121.516251 79.485008,121.048065 
	C81.551857,120.020294 83.276680,119.006981 85.271149,117.954651 
	C85.751617,117.632759 85.962440,117.349884 86.474762,116.953873 
	C88.178352,115.297623 89.580437,113.754532 91.239082,112.093277 
	C91.655983,111.648872 91.816330,111.322624 92.268700,110.832092 
	C95.709969,108.032768 98.859230,105.397728 102.249313,102.849602 
	C102.659035,102.911957 102.827950,102.887413 103.293777,103.024429 
	C105.476562,104.782272 107.362427,106.378578 109.320480,108.253311 
	C110.124901,109.404572 110.857124,110.277397 111.589355,111.150230 
z"/>
<path fill="#2B476C" opacity="1.000000" stroke="none" 
	d="
M84.240982,90.469803 
	C82.864067,92.357086 81.487152,94.244362 80.013496,96.439934 
	C76.484375,99.434425 73.051994,102.120628 69.054726,104.925415 
	C68.329224,105.103271 68.168617,105.162537 68.008018,105.221802 
	C64.697754,103.872513 61.375210,102.552292 58.082359,101.161758 
	C56.414516,100.457443 54.800293,99.626144 52.511341,98.619095 
	C50.431961,98.540512 49.003067,98.695068 47.574177,98.849625 
	C43.615387,100.204521 39.656601,101.559418 34.976173,102.976830 
	C33.509487,103.014893 32.764442,102.990433 32.019398,102.965973 
	C31.965048,102.513206 31.910698,102.060448 31.785965,101.052856 
	C31.612633,100.166878 31.396011,99.948448 31.065720,99.842758 
	C31.101072,99.449341 31.136427,99.055931 31.105320,98.373573 
	C35.054577,97.427498 39.478336,97.615799 42.992584,95.919670 
	C48.587284,93.219421 53.455795,93.506981 58.550690,96.502930 
	C60.121429,97.426575 61.740204,98.279404 63.384808,99.064461 
	C67.772072,101.158745 71.714920,100.757652 75.072189,96.943085 
	C77.265701,94.450783 79.553169,92.041161 82.311905,89.352753 
	C83.297165,89.563934 83.769073,90.016869 84.240982,90.469803 
z"/>
<path fill="#ECF3F8" opacity="1.000000" stroke="none" 
	d="
M79.142982,121.062515 
	C77.855476,121.516251 76.567970,121.969986 74.983833,122.528259 
	C75.848328,123.074966 76.583572,123.539932 77.860008,124.281921 
	C79.270309,124.114670 80.139427,123.670387 81.008537,123.226112 
	C83.156441,122.162605 85.613792,121.463287 87.385910,119.957512 
	C90.765152,117.086182 93.733498,113.734406 96.908913,110.619286 
	C101.438904,106.175316 104.282845,106.405670 108.184212,111.537445 
	C109.377960,113.107697 110.457352,114.764877 111.669052,116.704323 
	C110.883629,117.281532 110.018272,117.536667 108.685265,117.911362 
	C106.801590,116.949867 105.385559,115.868805 103.771217,114.576965 
	C102.722939,114.522049 101.872986,114.677917 100.705780,114.979263 
	C97.560555,117.345459 94.732582,119.566177 91.570137,121.922577 
	C87.878212,123.726357 84.520767,125.394455 80.690247,127.034088 
	C77.001923,127.043808 73.786667,127.081978 70.157593,127.178680 
	C67.494301,127.161110 65.244835,127.085007 62.994804,126.694115 
	C62.969990,125.960442 62.945740,125.541565 63.382439,125.084488 
	C66.581825,125.024269 69.325218,125.074432 72.052353,124.887497 
	C72.387619,124.864510 72.636024,123.574409 73.041534,122.506020 
	C75.153252,121.781197 77.148117,121.421860 79.142982,121.062515 
z"/>
<path fill="#244267" opacity="1.000000" stroke="none" 
	d="
M82.988617,102.993713 
	C79.753036,105.754509 76.517456,108.515312 72.813004,111.687973 
	C71.563538,112.399994 70.782936,112.700157 70.002342,113.000320 
	C68.294006,113.002083 66.585663,113.003845 64.287048,112.746399 
	C63.124977,112.397820 62.553192,112.308449 61.981403,112.219086 
	C57.595020,111.090622 53.208637,109.962158 48.105545,108.964417 
	C47.070454,109.324837 46.752071,109.554520 46.433685,109.784203 
	C44.380711,110.938782 42.327740,112.093369 39.820435,113.572914 
	C39.126209,114.165100 38.886318,114.432320 38.646427,114.699539 
	C38.646427,114.699539 38.868237,114.654121 38.475189,114.773880 
	C37.707573,114.971313 37.333004,115.048981 36.958431,115.126648 
	C36.436146,113.910889 35.913857,112.695129 35.177505,110.928566 
	C34.985435,109.947327 35.007431,109.516899 35.029427,109.086472 
	C38.836456,107.519493 42.643490,105.952515 47.156036,104.194534 
	C49.571892,103.983589 51.282230,103.963646 52.992577,103.943695 
	C55.253819,105.002472 57.515060,106.061249 60.297920,107.410362 
	C61.212662,107.771057 61.605782,107.841415 61.998905,107.911774 
	C61.998905,107.911774 62.293156,108.152527 62.741272,108.441650 
	C65.444809,109.005020 67.700233,109.279282 69.955650,109.553528 
	C70.518089,109.500175 71.080521,109.446815 72.071411,109.132004 
	C72.694168,108.590614 72.888466,108.310692 73.082748,108.030762 
	C75.978241,105.249405 78.873726,102.468056 82.230957,99.315552 
	C83.549042,98.965714 84.405373,98.987038 85.261703,99.008362 
	C84.886658,99.780556 84.511604,100.552750 83.804283,101.709465 
	C83.310883,102.393898 83.149750,102.693810 82.988617,102.993713 
z"/>
<path fill="#294467" opacity="1.000000" stroke="none" 
	d="
M72.029350,132.741135 
	C77.409599,135.083542 82.785751,135.762787 88.165298,132.728729 
	C88.881416,132.324844 89.627220,131.970779 90.372475,131.621796 
	C104.404068,125.051086 101.540695,124.545128 111.461273,134.352539 
	C112.491898,135.955276 113.168709,137.510498 114.475105,140.512436 
	C112.042633,139.416595 110.032341,139.142975 109.128227,137.996811 
	C104.648338,132.317535 99.060577,132.053436 92.035553,134.096375 
	C89.500557,134.855896 87.760727,135.563995 86.020897,136.272095 
	C85.422997,136.286224 84.825104,136.300369 83.684128,136.654434 
	C81.764214,137.057236 80.387367,137.120132 79.010521,137.183029 
	C78.835693,137.138809 78.660858,137.094589 78.011635,136.783539 
	C76.694641,136.409012 75.852051,136.301331 75.009453,136.193634 
	C74.564453,136.137329 74.119446,136.081024 73.175613,135.768677 
	C72.121849,135.420547 71.566910,135.328430 71.011978,135.236328 
	C68.281853,135.171295 65.551735,135.106247 62.276485,134.733093 
	C62.142349,133.822906 62.553341,133.220856 63.420986,132.640579 
	C66.594879,132.688614 69.312111,132.714874 72.029350,132.741135 
z"/>
<path fill="#2D486C" opacity="1.000000" stroke="none" 
	d="
M99.010666,139.847122 
	C99.611786,139.981735 100.212906,140.116364 101.318245,140.454895 
	C102.211372,140.719330 102.600273,140.779846 102.989182,140.840378 
	C103.654778,141.295563 104.320374,141.750748 105.019608,142.228928 
	C100.737152,146.164886 87.911316,146.332672 80.625099,145.445328 
	C77.947075,145.119186 75.380630,143.876892 72.268105,142.697021 
	C70.856995,141.886719 69.941078,141.431900 68.971161,140.742203 
	C68.917168,140.507339 69.040283,140.041214 69.040283,140.041214 
	C69.040283,140.041214 69.520370,139.932526 70.166321,139.913391 
	C72.213722,139.907593 73.615158,139.920898 75.016602,139.934219 
	C75.503815,140.138443 75.991028,140.342667 76.978378,140.701385 
	C77.652229,140.838242 77.825951,140.820572 77.999672,140.802902 
	C78.369446,140.918640 78.739212,141.034378 79.716034,141.390076 
	C82.708336,141.471497 85.093597,141.312958 87.478851,141.154419 
	C89.419373,140.814224 91.359894,140.474014 94.070557,140.065018 
	C96.230682,139.946548 97.620674,139.896835 99.010666,139.847122 
z"/>
<path fill="#2C486A" opacity="1.000000" stroke="none" 
	d="
M103.969536,114.787750 
	C105.385559,115.868805 106.801590,116.949867 108.503723,118.211502 
	C114.404945,128.204178 116.935768,130.908798 123.432961,132.420334 
	C120.108269,136.225128 118.257011,136.103973 114.535690,131.639801 
	C112.538963,129.011597 110.840752,126.601532 109.143692,124.190666 
	C105.823441,119.473885 102.401031,118.634354 97.357735,121.220993 
	C95.916092,121.960373 94.386856,122.528954 92.460793,122.873856 
	C91.984062,122.310196 91.944336,122.048546 91.904617,121.786896 
	C94.732582,119.566177 97.560555,117.345459 101.073982,115.007660 
	C102.496140,114.856300 103.232834,114.822029 103.969536,114.787750 
z"/>
<path fill="#ECF3F8" opacity="1.000000" stroke="none" 
	d="
M42.062981,123.295143 
	C42.792252,122.733803 43.772251,122.762886 44.263924,122.287224 
	C49.824669,116.907509 56.413414,117.282547 63.324982,118.459396 
	C66.552322,119.008919 69.910667,118.789001 73.266495,119.209122 
	C72.221626,120.329399 71.119888,121.158386 69.627647,121.994095 
	C67.834618,122.239693 65.760834,123.184898 65.143150,122.597900 
	C62.105145,119.710831 59.634022,121.567307 56.586899,122.999344 
	C51.404472,121.750908 49.176727,125.633316 46.170040,127.938889 
	C44.808994,126.509636 43.447948,125.080383 42.062981,123.295143 
z"/>
<path fill="#2C4768" opacity="1.000000" stroke="none" 
	d="
M129.015488,107.165390 
	C121.637985,105.639870 115.836464,101.342621 110.174744,95.847885 
	C110.025978,94.405228 110.026215,93.652100 110.026443,92.898979 
	C114.965210,95.984543 119.903984,99.070107 125.376068,102.377365 
	C126.267189,102.629707 126.625000,102.660347 126.982803,102.690987 
	C128.529037,102.932648 130.075256,103.174316 132.364334,103.564224 
	C136.062424,103.734665 139.017654,103.756859 141.972900,103.779037 
	C143.658752,107.537323 140.661392,106.818398 137.945129,107.159607 
	C134.427811,107.172157 131.721649,107.168770 129.015488,107.165390 
z"/>
<path fill="#364D6B" opacity="1.000000" stroke="none" 
	d="
M91.570137,121.922585 
	C91.944336,122.048546 91.984062,122.310196 92.090851,122.963150 
	C88.035393,129.843109 81.639305,130.327286 74.062279,129.827118 
	C69.489761,129.870682 65.749680,129.978180 61.651775,130.042328 
	C59.798088,130.635803 58.302216,131.272644 56.547703,131.957001 
	C55.916164,132.354431 55.543266,132.704346 54.878242,133.157028 
	C54.382977,133.835922 54.179844,134.412064 53.976711,134.988205 
	C52.977608,134.241791 51.978504,133.495392 51.007065,132.394089 
	C51.034729,132.039200 51.052013,132.088791 51.363834,131.940033 
	C54.118690,130.461182 56.561726,129.131073 59.330765,127.839554 
	C60.256241,127.650360 60.855713,127.422592 61.717220,127.256363 
	C62.317963,127.214912 62.656666,127.111908 62.995373,127.008896 
	C65.244835,127.085007 67.494301,127.161110 70.542130,127.372559 
	C74.614761,127.359451 77.889046,127.211006 81.163322,127.062553 
	C84.520767,125.394455 87.878212,123.726357 91.570137,121.922585 
z"/>
<path fill="#90A1BB" opacity="1.000000" stroke="none" 
	d="
M242.763962,115.862991 
	C242.964508,118.104599 243.165054,120.346207 243.411179,123.097290 
	C250.075119,123.097290 256.570526,123.097290 263.532166,123.046280 
	C269.683990,123.046768 275.369598,123.098259 281.880859,123.133728 
	C283.188904,123.078224 283.671326,123.038750 284.153748,122.999275 
	C283.669098,123.695885 283.189240,124.996964 282.699097,125.000854 
	C269.833313,125.103104 256.966339,125.090408 244.100235,125.001060 
	C243.499832,124.996887 242.905624,124.102821 242.126282,122.819626 
	C241.934372,120.043533 241.924728,118.071030 242.114716,115.994270 
	C242.314346,115.890022 242.763962,115.862991 242.763962,115.862991 
z"/>
<path fill="#354F6E" opacity="1.000000" stroke="none" 
	d="
M114.012314,89.035133 
	C120.450813,91.426369 126.790039,94.162987 133.372086,96.054749 
	C136.401962,96.925575 139.907410,96.141663 143.810699,96.104706 
	C144.424194,96.101349 144.887497,96.204308 144.887497,96.204308 
	C144.856583,96.527519 144.819809,96.850060 144.583481,97.644539 
	C143.916595,98.547043 143.443390,98.976944 142.970184,99.406837 
	C139.347916,99.234299 135.725662,99.061760 131.387360,98.690994 
	C129.783661,98.374878 128.895996,98.256981 128.008331,98.139084 
	C123.582809,95.798836 119.157288,93.458588 114.323540,90.729675 
	C113.947647,89.905716 113.979980,89.470421 114.012314,89.035133 
z"/>
<path fill="#3D526F" opacity="1.000000" stroke="none" 
	d="
M84.533493,90.287750 
	C83.769073,90.016869 83.297165,89.563934 82.486328,89.062218 
	C91.226212,79.236717 101.762352,79.709015 110.146881,86.706436 
	C110.097809,87.339493 109.858467,87.663612 109.297813,87.998833 
	C106.396118,86.953499 103.815735,85.897072 100.538872,84.614357 
	C98.243538,84.351349 96.644691,84.314621 95.045837,84.277893 
	C94.856651,84.258003 94.667458,84.238121 93.978577,84.289291 
	C93.151604,84.429100 92.910622,84.611740 92.755951,84.908257 
	C90.112640,86.640739 87.469322,88.373222 84.533493,90.287750 
z"/>
<path fill="#3B5170" opacity="1.000000" stroke="none" 
	d="
M109.879936,92.630409 
	C110.026215,93.652100 110.025978,94.405228 110.029251,95.534958 
	C107.865997,94.329369 105.895691,91.951309 103.485237,91.356285 
	C100.088051,90.517685 96.364845,90.999786 92.059418,91.005692 
	C90.882904,91.064827 90.428001,91.035469 89.973091,91.006111 
	C95.689194,85.786903 99.120354,85.529716 106.684723,89.854584 
	C107.925049,90.740936 108.829239,91.551392 109.879936,92.630409 
z"/>
<path fill="#25406F" opacity="1.000000" stroke="none" 
	d="
M190.456467,74.057114 
	C189.805588,70.804344 187.984695,69.011642 184.341888,68.607071 
	C185.130463,65.175713 186.122101,62.086876 187.113739,58.998039 
	C187.742035,60.650787 188.942642,62.321930 188.890213,63.952785 
	C188.739273,68.647400 191.049286,68.403915 194.592712,67.047379 
	C193.577728,69.310043 192.174576,71.619843 190.456467,74.057114 
z"/>
<path fill="#233F6F" opacity="1.000000" stroke="none" 
	d="
M241.915085,116.098518 
	C241.924728,118.071030 241.934372,120.043533 241.966492,122.437790 
	C238.958191,122.960236 235.927399,123.060928 232.450531,123.069519 
	C233.713211,122.637642 235.538269,122.559929 237.091690,121.870316 
	C238.215225,121.371544 238.978088,120.060371 239.901794,119.111496 
	C238.846573,118.409004 237.654068,116.975349 236.762207,117.142822 
	C234.215225,117.621132 231.790451,118.750305 228.667221,119.853104 
	C228.541626,119.238358 228.279282,117.954308 228.488174,116.278351 
	C233.277969,115.957146 237.596527,116.027832 241.915085,116.098518 
z"/>
<path fill="#25406F" opacity="1.000000" stroke="none" 
	d="
M172.950531,77.456451 
	C174.985123,77.389702 177.098816,77.824310 179.231979,77.966286 
	C181.714417,78.131500 184.192719,78.353127 185.399002,75.120598 
	C185.675568,74.379494 187.971024,74.391808 189.761078,74.099586 
	C183.137451,80.501015 179.060837,81.377518 172.950531,77.456451 
z"/>
<path fill="#283D61" opacity="1.000000" stroke="none" 
	d="
M317.890747,72.544861 
	C317.809082,73.008217 317.404785,73.003937 317.202393,73.001968 
	C317.000000,73.000000 316.999969,72.999641 316.999939,72.999641 
	C316.997681,65.565231 317.205353,58.120388 316.836945,50.704166 
	C316.751099,48.975807 314.707336,47.344700 313.301636,45.421753 
	C314.510529,45.077560 315.982178,44.980461 317.972412,44.849148 
	C317.972412,54.064629 317.972412,63.073063 317.890747,72.544861 
z"/>
<path fill="#25406F" opacity="1.000000" stroke="none" 
	d="
M185.835297,46.651581 
	C180.654449,47.620716 175.216476,48.302349 169.356262,48.971695 
	C173.924591,44.519047 179.547546,44.134392 185.835297,46.651581 
z"/>
<path fill="#233F6F" opacity="1.000000" stroke="none" 
	d="
M219.077026,121.333771 
	C222.589523,121.475540 226.027817,121.957420 229.734161,122.727173 
	C227.174988,123.370949 224.349884,123.928406 221.519287,123.957848 
	C220.688477,123.966492 219.842087,122.476852 219.077026,121.333771 
z"/>
<path fill="#2D4867" opacity="1.000000" stroke="none" 
	d="
M46.431854,128.065109 
	C49.176727,125.633316 51.404472,121.750908 56.695938,123.250717 
	C57.155582,123.670242 57.086590,123.839386 56.682198,124.095596 
	C53.863506,126.100784 51.380207,128.018921 48.923847,129.939819 
	C48.950783,129.942612 48.915504,129.900391 48.915504,129.900391 
	C48.174896,129.330704 47.434284,128.761017 46.431854,128.065109 
z"/>
<path fill="#25406F" opacity="1.000000" stroke="none" 
	d="
M193.026550,52.603973 
	C188.816757,53.757614 187.491638,50.649029 186.069427,47.277893 
	C188.348236,48.700584 190.647110,50.488018 193.026550,52.603973 
z"/>
<path fill="#213960" opacity="1.000000" stroke="none" 
	d="
M283.830353,119.970825 
	C282.396881,117.720650 280.841827,116.478157 277.828186,117.731918 
	C276.628448,118.231041 274.732697,117.057129 273.106750,116.261780 
	C275.972870,115.895432 278.899475,115.761147 281.791290,116.018547 
	C282.689270,116.098473 283.492706,117.240738 284.178284,118.619286 
	C283.954865,119.551552 283.892609,119.761192 283.830353,119.970825 
z"/>
<path fill="#233F6F" opacity="1.000000" stroke="none" 
	d="
M222.629501,91.414505 
	C221.933929,92.989090 220.844788,94.461121 219.387939,95.617790 
	C219.026718,94.100952 219.033218,92.899475 219.039734,91.698013 
	C220.105133,91.569321 221.170532,91.440636 222.629501,91.414505 
z"/>
<path fill="#2B4574" opacity="1.000000" stroke="none" 
	d="
M199.170227,123.398758 
	C201.545837,122.978951 203.883911,122.967209 206.592621,122.945969 
	C204.654037,125.934410 201.930710,125.206581 199.170227,123.398758 
z"/>
<path fill="#EBF2F7" opacity="1.000000" stroke="none" 
	d="
M129.203827,107.463898 
	C131.721649,107.168770 134.427811,107.172157 137.580765,107.245514 
	C136.937607,107.897293 135.847656,108.479111 134.402649,109.088654 
	C132.495804,108.665070 130.943985,108.213745 129.203827,107.463898 
z"/>
<path fill="#E9F0F6" opacity="1.000000" stroke="none" 
	d="
M56.806343,131.909485 
	C58.302216,131.272644 59.798088,130.635803 61.664841,130.319061 
	C62.345261,131.299042 62.654800,131.958923 62.964336,132.618805 
	C62.553341,133.220856 62.142349,133.822906 61.819500,134.732697 
	C61.907639,135.040405 61.532387,135.136383 61.011131,135.077576 
	C59.964073,134.649689 59.438271,134.280609 58.882477,133.584442 
	C58.170444,132.808075 57.488392,132.358780 56.806343,131.909485 
z"/>
<path fill="#ECF3F8" opacity="1.000000" stroke="none" 
	d="
M111.918213,110.979683 
	C110.857124,110.277397 110.124901,109.404572 109.652283,108.176476 
	C110.294029,106.828896 110.676163,105.836578 111.058289,104.844261 
	C112.085152,105.962791 113.112007,107.081314 114.263985,108.505157 
	C113.675087,109.476692 112.961075,110.142914 111.918213,110.979683 
z"/>
<path fill="#25406F" opacity="1.000000" stroke="none" 
	d="
M162.991760,66.356277 
	C164.339691,68.072655 165.670059,70.145325 167.001465,72.606277 
	C165.659714,70.900566 164.316956,68.806564 162.991760,66.356277 
z"/>
<path fill="#2B4574" opacity="1.000000" stroke="none" 
	d="
M218.770660,91.591797 
	C219.033218,92.899475 219.026718,94.100952 219.040222,95.664825 
	C218.891907,96.588898 218.723572,97.150566 218.318237,97.892700 
	C217.443970,96.170654 216.806702,94.268150 216.311310,91.968765 
	C217.135986,91.543121 217.818787,91.514359 218.770660,91.591797 
z"/>
<path fill="#E9F2F8" opacity="1.000000" stroke="none" 
	d="
M58.912464,133.911530 
	C59.438271,134.280609 59.964073,134.649689 60.818871,135.100845 
	C61.053265,136.455322 60.958672,137.727722 60.858902,139.069763 
	C59.392841,138.015808 58.037548,137.041489 56.342857,135.698700 
	C56.005917,134.878922 56.008373,134.427612 56.374626,133.985306 
	C57.463104,133.966721 58.187786,133.939117 58.912464,133.911530 
z"/>
<path fill="#233F6F" opacity="1.000000" stroke="none" 
	d="
M218.792450,106.436066 
	C219.161667,110.434235 219.422501,114.888329 219.422791,119.657608 
	C219.002869,115.612526 218.843475,111.252258 218.792450,106.436066 
z"/>
<path fill="#283D61" opacity="1.000000" stroke="none" 
	d="
M310.639160,45.237877 
	C310.851196,49.615257 310.690918,54.026352 310.207031,58.697693 
	C309.834412,56.310184 309.785370,53.662418 309.859253,50.262154 
	C309.973236,49.293846 309.964325,49.078041 309.955383,48.862236 
	C310.059204,47.665352 310.163025,46.468472 310.639160,45.237877 
z"/>
<path fill="#25406F" opacity="1.000000" stroke="none" 
	d="
M163.554352,55.671112 
	C163.558945,58.167870 163.269165,60.945923 162.907104,64.187271 
	C162.976532,61.751175 163.118256,58.851795 163.554352,55.671112 
z"/>
<path fill="#A0ABC2" opacity="1.000000" stroke="none" 
	d="
M256.901917,116.598785 
	C255.128677,116.447205 253.199051,115.992531 251.397919,115.144890 
	C253.266144,115.266510 255.005844,115.781090 256.901917,116.598785 
z"/>
<path fill="#EBF2F7" opacity="1.000000" stroke="none" 
	d="
M69.716171,109.277115 
	C67.700233,109.279282 65.444809,109.005020 62.931183,108.433212 
	C64.940880,108.424004 67.208786,108.712357 69.716171,109.277115 
z"/>
<path fill="#233F6F" opacity="1.000000" stroke="none" 
	d="
M240.762360,91.587952 
	C237.871429,92.005615 234.885391,92.002914 231.450912,91.790764 
	C231.002457,91.581314 231.006485,91.164436 231.006485,91.164436 
	C234.226746,91.165489 237.446991,91.166534 240.762360,91.587952 
z"/>
<path fill="#E9F2F8" opacity="1.000000" stroke="none" 
	d="
M63.936806,139.296844 
	C64.446732,138.591431 64.956657,137.886017 65.466583,137.180603 
	C65.970970,137.868866 66.475365,138.557114 66.726395,139.651093 
	C66.294067,140.068222 66.115105,140.079666 65.652802,140.043182 
	C64.891899,139.762466 64.414345,139.529663 63.936806,139.296844 
z"/>
<path fill="#EBF2F7" opacity="1.000000" stroke="none" 
	d="
M141.649185,103.528343 
	C139.017654,103.756859 136.062424,103.734665 132.740112,103.453217 
	C135.357178,103.221848 138.341324,103.249741 141.649185,103.528343 
z"/>
<path fill="#EBF2F7" opacity="1.000000" stroke="none" 
	d="
M85.558884,98.943840 
	C84.405373,98.987038 83.549042,98.965714 82.358719,99.003433 
	C82.014977,98.886200 82.005226,98.709930 81.991943,98.268921 
	C83.445801,97.812546 84.903175,97.620918 86.360558,97.429291 
	C86.192398,97.912636 86.024239,98.395973 85.558884,98.943840 
z"/>
<path fill="#25406F" opacity="1.000000" stroke="none" 
	d="
M168.656769,49.027523 
	C168.055527,50.186058 167.148758,51.434929 165.874939,52.522026 
	C166.455658,51.279453 167.403427,50.198654 168.656769,49.027523 
z"/>
<path fill="#E9F2F8" opacity="1.000000" stroke="none" 
	d="
M74.812088,139.670761 
	C73.615158,139.920898 72.213722,139.907593 70.396255,139.825592 
	C71.264183,136.219223 73.024300,138.983551 74.812088,139.670761 
z"/>
<path fill="#E9F2F8" opacity="1.000000" stroke="none" 
	d="
M86.244629,136.476471 
	C87.760727,135.563995 89.500557,134.855896 91.615158,134.171585 
	C90.149406,135.023849 88.308876,135.852356 86.244629,136.476471 
z"/>
<path fill="#25406F" opacity="1.000000" stroke="none" 
	d="
M167.126892,73.298141 
	C168.304611,73.790291 169.603806,74.582985 170.919754,75.739716 
	C169.707138,75.268738 168.477753,74.433708 167.126892,73.298141 
z"/>
<path fill="#A0ABC2" opacity="1.000000" stroke="none" 
	d="
M242.509720,93.906631 
	C242.442398,95.430580 242.098282,96.985123 241.360229,98.278748 
	C240.951324,97.559601 240.936386,97.101372 240.901596,95.973862 
	C240.835083,94.862785 240.788422,94.420982 240.741776,93.979187 
	C240.741776,93.979187 240.943298,93.858444 241.034637,93.932220 
	C241.494965,93.983070 241.863937,93.960152 242.509720,93.906631 
z"/>
<path fill="#233F6F" opacity="1.000000" stroke="none" 
	d="
M218.424347,100.210129 
	C218.799667,101.139908 219.081543,102.413971 219.076889,103.867111 
	C218.637207,102.882263 218.484070,101.718338 218.424347,100.210129 
z"/>
<path fill="#ECF3F8" opacity="1.000000" stroke="none" 
	d="
M42.935493,118.100861 
	C42.804100,118.736534 42.289005,119.337494 41.473648,119.994797 
	C40.640053,119.643181 40.106720,119.235214 39.573387,118.827248 
	C40.566189,118.573540 41.558987,118.319839 42.935493,118.100861 
z"/>
<path fill="#EBF2F7" opacity="1.000000" stroke="none" 
	d="
M34.983849,108.773972 
	C35.007431,109.516899 34.985435,109.947327 34.938042,110.700089 
	C34.359997,109.970276 33.807354,108.918137 33.254715,107.865997 
	C33.815899,108.064484 34.377083,108.262978 34.983849,108.773972 
z"/>
<path fill="#EFF5F8" opacity="1.000000" stroke="none" 
	d="
M98.952492,139.538910 
	C97.620674,139.896835 96.230682,139.946548 94.426132,139.944229 
	C95.639153,139.671707 97.266731,139.451202 98.952492,139.538910 
z"/>
<path fill="#E8EEF3" opacity="1.000000" stroke="none" 
	d="
M145.030884,95.877243 
	C144.887497,96.204308 144.424194,96.101349 144.209961,95.999252 
	C144.000610,94.846619 144.005463,93.796082 144.011078,92.349747 
	C144.399338,93.152702 144.786804,94.351448 145.030884,95.877243 
z"/>
<path fill="#E9F2F8" opacity="1.000000" stroke="none" 
	d="
M86.989349,141.097702 
	C85.093597,141.312958 82.708336,141.471497 80.007858,141.376221 
	C81.961700,141.095261 84.230774,141.068130 86.989349,141.097702 
z"/>
<path fill="#DBEAF6" opacity="1.000000" stroke="none" 
	d="
M69.025162,140.977066 
	C69.941078,141.431900 70.856995,141.886719 71.891479,142.642273 
	C70.961639,142.687546 69.913254,142.432068 68.520981,141.865005 
	C68.206276,141.374695 68.235466,141.195984 68.456436,141.038589 
	C68.648224,141.059906 69.025162,140.977066 69.025162,140.977066 
z"/>
<path fill="#EBF2F7" opacity="1.000000" stroke="none" 
	d="
M142.973297,99.712082 
	C143.443390,98.976944 143.916595,98.547043 144.622772,97.884872 
	C144.571671,98.850410 144.287567,100.048218 144.003464,101.246017 
	C143.661118,100.836449 143.318771,100.426880 142.973297,99.712082 
z"/>
<path fill="#EBF2F7" opacity="1.000000" stroke="none" 
	d="
M52.740097,103.678864 
	C51.282230,103.963646 49.571892,103.983589 47.433769,103.983971 
	C48.833202,103.780952 50.660408,103.597488 52.740097,103.678864 
z"/>
<path fill="#E9F0F6" opacity="1.000000" stroke="none" 
	d="
M56.010826,133.976303 
	C56.008373,134.427612 56.005917,134.878922 56.002960,135.668869 
	C55.500488,135.745041 54.998512,135.482574 54.236626,135.104156 
	C54.179844,134.412064 54.382977,133.835922 55.071609,133.253998 
	C55.772518,133.450912 55.923759,133.693619 56.010826,133.976303 
z"/>
<path fill="#EBF2F7" opacity="1.000000" stroke="none" 
	d="
M32.026237,103.275635 
	C32.764442,102.990433 33.509487,103.014893 34.625504,103.096741 
	C34.008671,103.297852 33.020874,103.441574 32.026237,103.275635 
z"/>
<path fill="#E9F2F8" opacity="1.000000" stroke="none" 
	d="
M79.272797,137.416489 
	C80.387367,137.120132 81.764214,137.057236 83.551674,136.937775 
	C82.486557,137.137466 81.010818,137.393707 79.272797,137.416489 
z"/>
<path fill="#929DAF" opacity="1.000000" stroke="none" 
	d="
M63.699356,139.271423 
	C64.414345,139.529663 64.891899,139.762466 65.675034,140.300354 
	C65.965767,140.777206 65.950905,140.948959 65.936035,141.120728 
	C65.111328,140.495819 64.286621,139.870926 63.699356,139.271423 
z"/>
<path fill="#EBF2F7" opacity="1.000000" stroke="none" 
	d="
M113.993599,88.780853 
	C113.979980,89.470421 113.947647,89.905716 113.980484,90.662872 
	C113.706306,90.531654 113.366951,90.078575 113.000038,89.327057 
	C113.148323,88.590721 113.324173,88.152809 113.500015,87.714905 
	C113.658310,87.985458 113.816597,88.256012 113.993599,88.780853 
z"/>
<path fill="#ECF3F8" opacity="1.000000" stroke="none" 
	d="
M130.992966,120.089493 
	C130.597107,120.545998 130.072174,120.730988 129.262360,120.867661 
	C129.606293,120.485558 130.235092,120.151764 130.992966,120.089493 
z"/>
<path fill="#90A1BB" opacity="1.000000" stroke="none" 
	d="
M283.945435,120.302399 
	C283.892609,119.761192 283.954865,119.551552 284.185364,119.060059 
	C284.691284,118.816200 285.028961,118.854202 285.623169,118.897171 
	C285.912079,119.353737 285.944397,119.805344 286.015808,120.595123 
	C285.689209,121.026787 285.323608,121.120277 284.675476,121.233009 
	C284.282166,121.046158 284.171356,120.840073 283.945435,120.302399 
z"/>
<path fill="#ECF3F8" opacity="1.000000" stroke="none" 
	d="
M126.053146,121.107109 
	C125.073822,121.329926 123.590843,121.496262 121.810051,121.411957 
	C122.857986,121.124420 124.203743,121.087524 126.053146,121.107109 
z"/>
<path fill="#ECF3F8" opacity="1.000000" stroke="none" 
	d="
M37.006264,115.435547 
	C37.333004,115.048981 37.707573,114.971313 38.362030,114.770737 
	C38.588303,115.238724 38.534691,115.829636 38.481079,116.420540 
	C38.005417,116.195183 37.529755,115.969818 37.006264,115.435547 
z"/>
<path fill="#E5EDF3" opacity="1.000000" stroke="none" 
	d="
M124.234161,126.411362 
	C125.070236,126.127457 126.135429,126.071236 127.597092,126.072937 
	C126.816803,126.300247 125.640038,126.469643 124.234161,126.411362 
z"/>
<path fill="#EBF2F7" opacity="1.000000" stroke="none" 
	d="
M48.060799,98.910904 
	C49.003067,98.695068 50.431961,98.540512 52.160416,98.613632 
	C51.155796,98.884949 49.851608,98.928566 48.060799,98.910904 
z"/>
<path fill="#E5EDF3" opacity="1.000000" stroke="none" 
	d="
M51.058388,132.051056 
	C50.397995,131.568115 49.713940,131.073288 48.972694,130.239441 
	C48.915504,129.900391 48.950783,129.942612 49.268108,129.993286 
	C50.074291,130.725586 50.563152,131.407181 51.052013,132.088791 
	C51.052013,132.088791 51.034729,132.039200 51.058388,132.051056 
z"/>
<path fill="#25406F" opacity="1.000000" stroke="none" 
	d="
M165.138626,52.769558 
	C165.133209,53.345982 164.910522,54.111271 164.332794,54.938316 
	C164.292267,54.319527 164.606812,53.638973 165.138626,52.769558 
z"/>
<path fill="#2B4574" opacity="1.000000" stroke="none" 
	d="
M207.590302,91.085777 
	C206.821259,91.328720 205.661713,91.497276 204.271973,91.449432 
	C205.094467,91.159157 206.147110,91.085274 207.590302,91.085777 
z"/>
<path fill="#EBF2F7" opacity="1.000000" stroke="none" 
	d="
M128.250061,98.386040 
	C128.895996,98.256981 129.783661,98.374878 130.938766,98.702301 
	C130.301407,98.818878 129.396591,98.725937 128.250061,98.386040 
z"/>
<path fill="#ACC2DF" opacity="1.000000" stroke="none" 
	d="
M65.956306,141.102722 
	C65.950905,140.948959 65.965767,140.777206 65.958389,140.348267 
	C66.115105,140.079666 66.294067,140.068222 66.739700,140.020660 
	C67.459122,139.981415 67.911880,139.978317 68.702454,140.008209 
	C69.040283,140.041214 68.917168,140.507339 68.971161,140.742203 
	C69.025162,140.977066 68.648224,141.059906 68.068283,141.038895 
	C66.976685,141.024261 66.465027,141.030655 65.953362,141.037048 
	C65.953362,141.037048 65.976578,141.084732 65.956306,141.102722 
z"/>
<path fill="#E9F2F8" opacity="1.000000" stroke="none" 
	d="
M75.232986,136.420166 
	C75.852051,136.301331 76.694641,136.409012 77.741486,136.769745 
	C77.115990,136.897446 76.286255,136.772079 75.232986,136.420166 
z"/>
<path fill="#283D61" opacity="1.000000" stroke="none" 
	d="
M312.344116,79.218307 
	C312.867920,78.934364 313.768707,78.751724 314.851318,78.838089 
	C314.262451,79.177940 313.491760,79.248764 312.344116,79.218307 
z"/>
<path fill="#ECF3F8" opacity="1.000000" stroke="none" 
	d="
M126.790909,115.861481 
	C127.350975,115.542336 128.297592,115.282944 129.617096,115.074310 
	C129.052475,115.390465 128.114960,115.655853 126.790909,115.861481 
z"/>
<path fill="#25406F" opacity="1.000000" stroke="none" 
	d="
M171.063141,76.330063 
	C171.480759,76.241867 172.066696,76.410439 172.805191,76.854828 
	C172.382324,76.949364 171.806900,76.768097 171.063141,76.330063 
z"/>
<path fill="#213960" opacity="1.000000" stroke="none" 
	d="
M284.212097,122.742409 
	C283.671326,123.038750 283.188904,123.078224 282.344788,123.074631 
	C282.479706,122.693329 282.976288,122.355087 283.789246,122.001022 
	C284.160553,122.151978 284.215515,122.318756 284.212097,122.742409 
z"/>
<path fill="#E8EEF3" opacity="1.000000" stroke="none" 
	d="
M144.838562,74.215950 
	C144.528534,73.940407 144.289398,73.315613 144.096375,72.349152 
	C144.398148,72.627220 144.653809,73.246964 144.838562,74.215950 
z"/>
<path fill="#EFF5F9" opacity="1.000000" stroke="none" 
	d="
M30.638893,74.153847 
	C30.868032,74.455231 30.898176,74.898567 30.812561,75.656082 
	C30.611168,75.412109 30.525534,74.853958 30.638893,74.153847 
z"/>
<path fill="#E9F2F8" opacity="1.000000" stroke="none" 
	d="
M71.198212,135.446396 
	C71.566910,135.328430 72.121849,135.420547 72.838043,135.756439 
	C72.461021,135.885620 71.922729,135.771042 71.198212,135.446396 
z"/>
<path fill="#929DAF" opacity="1.000000" stroke="none" 
	d="
M66.086166,141.364136 
	C66.465027,141.030655 66.976685,141.024261 67.876495,141.017578 
	C68.235466,141.195984 68.206276,141.374695 68.227371,141.821075 
	C67.591438,141.956238 66.905205,141.823730 66.086166,141.364136 
z"/>
<path fill="#ECF3F8" opacity="1.000000" stroke="none" 
	d="
M61.984375,112.415329 
	C62.553192,112.308449 63.124977,112.397820 63.860214,112.739006 
	C63.573116,112.995277 63.122570,112.999741 62.333946,113.004105 
	C61.995869,113.004021 61.987343,112.611580 61.984375,112.415329 
z"/>
<path fill="#2B4574" opacity="1.000000" stroke="none" 
	d="
M230.754700,91.103317 
	C231.006485,91.164436 231.002457,91.581314 231.000519,91.789734 
	C230.705109,91.930321 230.454269,91.787598 230.127899,91.385696 
	C230.174118,91.148354 230.338516,91.095268 230.754700,91.103317 
z"/>
<path fill="#EBF2F7" opacity="1.000000" stroke="none" 
	d="
M61.801414,107.683029 
	C61.605782,107.841415 61.212662,107.771057 60.632874,107.456589 
	C60.832115,107.293083 61.218021,107.373680 61.801414,107.683029 
z"/>
<path fill="#2B4574" opacity="1.000000" stroke="none" 
	d="
M216.226379,91.336746 
	C216.040985,91.542641 215.696091,91.525604 215.180359,91.297745 
	C215.361984,91.095879 215.714432,91.104843 216.226379,91.336746 
z"/>
<path fill="#EBF2F7" opacity="1.000000" stroke="none" 
	d="
M72.845901,108.104782 
	C72.888466,108.310692 72.694168,108.590614 72.239807,108.897675 
	C72.098770,108.599586 72.308540,108.350914 72.845901,108.104782 
z"/>
<path fill="#EBF2F7" opacity="1.000000" stroke="none" 
	d="
M68.112793,105.359634 
	C68.168617,105.162537 68.329224,105.103271 68.743759,105.082245 
	C68.737640,105.246155 68.477600,105.371819 68.112793,105.359634 
z"/>
<path fill="#EFF5F9" opacity="1.000000" stroke="none" 
	d="
M31.083015,100.060837 
	C31.396011,99.948448 31.612633,100.166878 31.666248,100.731308 
	C31.355515,100.803230 31.183313,100.574669 31.083015,100.060837 
z"/>
<path fill="#E9F2F8" opacity="1.000000" stroke="none" 
	d="
M77.925430,140.657532 
	C77.825951,140.820572 77.652229,140.838242 77.257126,140.715866 
	C77.292999,140.275101 77.564819,140.253876 77.925430,140.657532 
z"/>
<path fill="#234070" opacity="1.000000" stroke="none" 
	d="
M309.841614,49.004898 
	C309.964325,49.078041 309.973236,49.293846 309.966034,49.833870 
	C309.859985,49.941929 309.751526,49.731010 309.688080,49.507336 
	C309.657562,49.399826 309.711914,49.268238 309.841614,49.004898 
z"/>
<path fill="#EFF5F8" opacity="1.000000" stroke="none" 
	d="
M102.785652,140.623352 
	C102.600273,140.779846 102.211372,140.719330 101.626144,140.429535 
	C101.813927,140.268936 102.198029,140.337616 102.785652,140.623352 
z"/>
<path fill="#EBF2F7" opacity="1.000000" stroke="none" 
	d="
M126.790657,102.501678 
	C126.625000,102.660347 126.267189,102.629707 125.728554,102.388550 
	C125.897987,102.222809 126.248245,102.267593 126.790657,102.501678 
z"/>
<path fill="#ECF3F8" opacity="1.000000" stroke="none" 
	d="
M41.140518,122.089340 
	C41.339664,122.041191 41.615791,122.250725 41.979523,122.712952 
	C41.783916,122.759430 41.500710,122.553215 41.140518,122.089340 
z"/>
<path fill="#EFF5F9" opacity="1.000000" stroke="none" 
	d="
M29.928005,91.082870 
	C30.185509,91.162460 30.255119,91.326279 30.243790,91.744492 
	C30.021935,91.721619 29.881023,91.444359 29.928005,91.082870 
z"/>
<path fill="#283D61" opacity="1.000000" stroke="none" 
	d="
M308.987671,78.318871 
	C309.272949,78.208107 309.539459,78.407181 309.912720,78.836334 
	C309.669281,78.920509 309.319092,78.774612 308.987671,78.318871 
z"/>
<path fill="#ECF3F8" opacity="1.000000" stroke="none" 
	d="
M117.913521,118.726013 
	C117.640907,118.938499 117.368317,118.779663 117.129059,118.224609 
	C117.385513,118.069199 117.635895,118.244644 117.913521,118.726013 
z"/>
<path fill="#ECF3F8" opacity="1.000000" stroke="none" 
	d="
M118.896202,119.629723 
	C118.641609,119.883904 118.366692,119.761414 118.116425,119.224762 
	C118.359398,119.049988 118.604332,119.197472 118.896202,119.629723 
z"/>
<path fill="#ECF3F8" opacity="1.000000" stroke="none" 
	d="
M120.824890,120.737274 
	C120.624756,120.874542 120.245583,120.775406 119.700470,120.423454 
	C119.904976,120.280724 120.275414,120.390800 120.824890,120.737274 
z"/>
<path fill="#ECF3F8" opacity="1.000000" stroke="none" 
	d="
M46.733452,109.795609 
	C46.752071,109.554520 47.070454,109.324837 47.692490,109.120399 
	C47.675163,109.366112 47.354191,109.586571 46.733452,109.795609 
z"/>
<path fill="#EBF2F7" opacity="1.000000" stroke="none" 
	d="
M134.735718,114.853798 
	C134.812286,114.676399 135.114029,114.562500 135.632294,114.577065 
	C135.579880,114.889275 135.283920,114.959862 134.735718,114.853798 
z"/>
<path fill="#ECF3F8" opacity="1.000000" stroke="none" 
	d="
M57.911606,114.693298 
	C57.828896,114.871155 57.659477,114.902924 57.249443,114.839973 
	C57.280849,114.679237 57.552872,114.613228 57.911606,114.693298 
z"/>
<path fill="#264171" opacity="1.000000" stroke="none" 
	d="
M252.081329,69.691650 
	C251.815582,69.939735 251.553711,69.837677 251.187469,69.488625 
	C251.384659,69.358223 251.718689,69.391518 252.081329,69.691650 
z"/>
<path fill="#ECF3F8" opacity="1.000000" stroke="none" 
	d="
M38.939770,114.690712 
	C38.886318,114.432320 39.126209,114.165100 39.642120,113.843338 
	C39.689796,114.086502 39.461452,114.384193 38.939770,114.690712 
z"/>
<path fill="#2B4574" opacity="1.000000" stroke="none" 
	d="
M189.716873,91.976807 
	C189.962921,92.219078 189.876480,92.465286 189.557953,92.812149 
	C189.427094,92.630814 189.446594,92.320129 189.716873,91.976807 
z"/>
<path fill="#283D61" opacity="1.000000" stroke="none" 
	d="
M317.000244,73.000305 
	C316.878876,73.430946 316.757263,73.861282 316.635651,74.291618 
	C316.620392,73.942696 316.605133,73.593765 316.794922,73.122238 
	C316.999969,72.999641 317.000000,73.000000 317.000244,73.000305 
z"/>
<path fill="#F7FAFB" opacity="1.000000" stroke="none" 
	d="
M186.990967,58.851898 
	C186.122101,62.086876 185.130463,65.175713 183.941956,68.574738 
	C183.241867,69.032768 182.738617,69.180611 181.656433,69.575409 
	C179.104767,69.665199 177.132080,69.508041 175.159378,69.350891 
	C174.353500,68.618088 173.547638,67.885284 172.388031,66.647949 
	C172.036499,63.100323 172.038696,60.057232 172.040909,57.014145 
	C172.603653,56.515949 173.166412,56.017757 174.138229,55.234539 
	C174.791595,54.700333 175.035904,54.451157 175.280212,54.201981 
	C175.280212,54.201981 175.161545,54.186493 175.605011,54.181801 
	C178.257492,54.246902 180.466507,54.316689 182.675507,54.386475 
	C182.675507,54.386475 182.846359,54.408337 182.964905,54.628311 
	C184.349854,56.006966 185.616241,57.165642 186.882629,58.324318 
	C186.882629,58.324318 186.868210,58.705761 186.990967,58.851898 
z"/>
<path fill="#25406F" opacity="1.000000" stroke="none" 
	d="
M182.730331,54.014763 
	C180.466507,54.316689 178.257492,54.246902 175.633453,54.234451 
	C177.374847,49.808887 180.041870,51.281250 182.730331,54.014763 
z"/>
<path fill="#25406F" opacity="1.000000" stroke="none" 
	d="
M171.648224,57.093918 
	C172.038696,60.057232 172.036499,63.100323 172.143265,66.523178 
	C168.069107,64.054359 169.840515,60.595768 171.648224,57.093918 
z"/>
<path fill="#25406F" opacity="1.000000" stroke="none" 
	d="
M186.911041,57.916306 
	C185.616241,57.165642 184.349854,56.006966 182.884979,54.596287 
	C185.398178,53.659550 186.960632,54.519588 186.911041,57.916306 
z"/>
<path fill="#25406F" opacity="1.000000" stroke="none" 
	d="
M175.279755,69.738159 
	C177.132080,69.508041 179.104767,69.665199 181.504303,69.792679 
	C179.754120,69.883820 177.577133,70.004623 175.279755,69.738159 
z"/>
<path fill="#25406F" opacity="1.000000" stroke="none" 
	d="
M175.010742,54.231972 
	C175.035904,54.451157 174.791595,54.700333 174.276398,54.984211 
	C174.250748,54.766598 174.496002,54.514282 175.010742,54.231972 
z"/>
<path fill="#EDF5F9" opacity="1.000000" stroke="none" 
	d="
M242.114716,115.994270 
	C237.596527,116.027832 233.277969,115.957146 228.497314,115.903427 
	C227.963074,115.758224 227.890945,115.596039 227.726959,114.877838 
	C227.510086,113.876541 227.385101,113.431267 227.260101,112.985992 
	C227.378754,112.792061 227.497391,112.598137 228.238724,112.114197 
	C232.295837,111.824181 235.730240,111.824181 239.655807,111.824181 
	C239.436630,108.509834 239.266602,105.938812 239.086426,103.214172 
	C235.245926,103.214172 231.636856,103.214172 228.027786,103.214172 
	C228.027786,103.214172 227.561356,103.058907 227.269073,102.684944 
	C226.905518,101.870071 226.834274,101.429153 226.763016,100.988243 
	C226.981888,100.593483 227.200760,100.198730 228.074707,99.722809 
	C229.491653,99.534630 230.253525,99.427620 231.015411,99.320602 
	C232.803146,99.387268 234.590881,99.453941 236.963684,99.443207 
	C237.703705,99.297371 237.858673,99.228928 238.013641,99.160477 
	C238.456970,99.227287 238.900284,99.294090 240.003418,99.256927 
	C240.797028,98.971718 240.930847,98.790489 241.064667,98.609268 
	C241.660843,99.923096 242.699081,101.213303 242.770782,102.555161 
	C242.990936,106.676003 242.840744,110.816628 242.799225,115.406281 
	C242.763962,115.862991 242.314346,115.890022 242.114716,115.994270 
z"/>
<path fill="#233F6F" opacity="1.000000" stroke="none" 
	d="
M228.347229,103.461090 
	C231.636856,103.214172 235.245926,103.214172 239.086426,103.214172 
	C239.266602,105.938812 239.436630,108.509834 239.655807,111.824181 
	C235.730240,111.824181 232.295837,111.824181 228.402924,111.815323 
	C230.217728,111.214928 232.594742,110.863274 234.725540,109.942093 
	C236.008087,109.387627 236.907272,107.946373 237.978729,106.903625 
	C236.996475,105.939560 236.156708,104.436539 235.000412,104.130844 
	C232.992264,103.599953 230.788437,103.809143 228.347229,103.461090 
z"/>
<path fill="#233F6F" opacity="1.000000" stroke="none" 
	d="
M230.919830,99.063408 
	C230.253525,99.427620 229.491653,99.534630 228.355621,99.528496 
	C228.929077,99.212303 229.876663,99.009254 230.919830,99.063408 
z"/>
<path fill="#233F6F" opacity="1.000000" stroke="none" 
	d="
M227.041290,113.069473 
	C227.385101,113.431267 227.510086,113.876541 227.563049,114.668015 
	C227.268188,114.393791 227.045334,113.773376 227.041290,113.069473 
z"/>
<path fill="#233F6F" opacity="1.000000" stroke="none" 
	d="
M226.511597,101.021347 
	C226.834274,101.429153 226.905518,101.870071 227.026764,102.643616 
	C226.804581,102.335648 226.532394,101.695045 226.511597,101.021347 
z"/>
<path fill="#233F6F" opacity="1.000000" stroke="none" 
	d="
M240.568298,94.150299 
	C240.788422,94.420982 240.835083,94.862785 240.836395,95.635742 
	C240.658981,95.418404 240.526917,94.869911 240.568298,94.150299 
z"/>
<path fill="#233F6F" opacity="1.000000" stroke="none" 
	d="
M241.038635,98.487625 
	C240.930847,98.790489 240.797028,98.971718 240.325287,99.146179 
	C240.052582,98.805710 240.217697,98.532394 240.706055,98.225494 
	C240.929413,98.131523 241.012589,98.365990 241.038635,98.487625 
z"/>
<path fill="#233F6F" opacity="1.000000" stroke="none" 
	d="
M237.931458,98.972412 
	C237.858673,99.228928 237.703705,99.297371 237.308090,99.284210 
	C237.328049,99.063194 237.588654,98.923767 237.931458,98.972412 
z"/>
<path fill="#EBF2F7" opacity="1.000000" stroke="none" 
	d="
M90.002411,93.003052 
	C89.172020,94.089821 88.341629,95.176582 87.511238,96.263351 
	C86.983192,95.903236 86.455147,95.543121 85.927101,95.183014 
	C86.744179,93.890984 87.561264,92.598953 88.711960,91.453659 
	C89.364525,92.067947 89.683464,92.535500 90.002411,93.003052 
z"/>
<path fill="#ECF3F8" opacity="1.000000" stroke="none" 
	d="
M90.304443,92.969696 
	C89.683464,92.535500 89.364525,92.067947 89.025726,91.303284 
	C89.005875,91.006180 89.489502,90.997437 89.731293,91.001770 
	C90.428001,91.035469 90.882904,91.064827 91.672897,91.162552 
	C91.540817,91.799393 91.073647,92.367867 90.304443,92.969696 
z"/>
<path fill="#ECF3F8" opacity="1.000000" stroke="none" 
	d="
M95.361778,84.507690 
	C96.644691,84.314621 98.243538,84.351349 100.176224,84.629143 
	C98.899277,84.825974 97.288498,84.781738 95.361778,84.507690 
z"/>
<path fill="#ECF3F8" opacity="1.000000" stroke="none" 
	d="
M74.918121,115.070892 
	C74.118889,115.386787 72.938705,115.666138 71.391418,115.889465 
	C72.195267,115.567085 73.366219,115.300720 74.918121,115.070892 
z"/>
<path fill="#ECF3F8" opacity="1.000000" stroke="none" 
	d="
M70.345474,113.005707 
	C70.782936,112.700157 71.563538,112.399994 72.659225,112.006973 
	C72.212418,112.279762 71.450516,112.645424 70.345474,113.005707 
z"/>
<path fill="#ECF3F8" opacity="1.000000" stroke="none" 
	d="
M83.212326,102.884872 
	C83.149750,102.693810 83.310883,102.393898 83.730453,102.030258 
	C83.897926,102.300087 83.713638,102.569931 83.212326,102.884872 
z"/>
<path fill="#ECF3F8" opacity="1.000000" stroke="none" 
	d="
M92.979576,84.898079 
	C92.910622,84.611740 93.151604,84.429100 93.710167,84.386124 
	C93.755043,84.663116 93.508957,84.821785 92.979576,84.898079 
z"/>
<path fill="#ECF3F8" opacity="1.000000" stroke="none" 
	d="
M64.740112,115.584610 
	C64.569481,115.787598 64.162323,115.794556 63.528084,115.592514 
	C63.701862,115.385201 64.102722,115.386894 64.740112,115.584610 
z"/>
<path fill="#FDFEFE" opacity="1.000000" stroke="none" 
	d="
M110.936325,104.538834 
	C110.676163,105.836578 110.294029,106.828896 109.580093,107.898048 
	C107.362427,106.378578 105.476562,104.782272 103.210632,102.872971 
	C102.556534,102.627533 102.282509,102.695114 102.008484,102.762695 
	C98.859230,105.397728 95.709969,108.032768 92.028206,110.963898 
	C91.324638,111.577133 91.153580,111.894279 90.982529,112.211441 
	C89.580437,113.754532 88.178352,115.297623 86.219254,117.019196 
	C85.441986,117.462997 85.221741,117.728325 85.001495,117.993668 
	C83.276680,119.006981 81.551857,120.020294 79.485008,121.048065 
	C77.148117,121.421860 75.153252,121.781197 72.716125,122.531540 
	C71.521957,122.610817 70.770058,122.299095 70.018150,121.987366 
	C71.119888,121.158386 72.221626,120.329399 73.732986,119.262787 
	C74.465363,118.883202 74.788101,118.741249 75.545242,118.701721 
	C76.317505,118.595230 76.655365,118.386299 76.993225,118.177368 
	C77.147583,118.113052 77.301949,118.048729 78.008499,117.987267 
	C79.039726,117.675644 79.518776,117.361153 79.997818,117.046661 
	C87.425568,113.124138 90.767235,105.615616 96.021439,99.110321 
	C96.759506,98.707779 96.919334,98.486145 96.995224,98.203972 
	C96.995224,98.203972 97.187904,97.911537 97.645020,97.864471 
	C98.400620,97.594116 98.699097,97.370827 98.997574,97.147552 
	C99.759171,97.087860 100.520767,97.028168 101.811432,97.292793 
	C102.663231,97.703186 102.985970,97.789253 103.308716,97.875320 
	C105.810600,99.994690 108.312485,102.114052 110.936325,104.538834 
z"/>
<path fill="#ECF3F8" opacity="1.000000" stroke="none" 
	d="
M79.701324,117.049072 
	C79.518776,117.361153 79.039726,117.675644 78.259338,117.986664 
	C78.440285,117.672615 78.922562,117.362045 79.701324,117.049072 
z"/>
<path fill="#ECF3F8" opacity="1.000000" stroke="none" 
	d="
M103.167221,97.649323 
	C102.985970,97.789253 102.663231,97.703186 102.177063,97.419983 
	C102.350998,97.289680 102.688370,97.356506 103.167221,97.649323 
z"/>
<path fill="#ECF3F8" opacity="1.000000" stroke="none" 
	d="
M98.703079,97.123367 
	C98.699097,97.370827 98.400620,97.594116 97.815292,97.823639 
	C97.821831,97.586311 98.115219,97.342751 98.703079,97.123367 
z"/>
<path fill="#ECF3F8" opacity="1.000000" stroke="none" 
	d="
M76.685776,118.148438 
	C76.655365,118.386299 76.317505,118.595230 75.672249,118.778793 
	C75.702682,118.542122 76.040497,118.330818 76.685776,118.148438 
z"/>
<path fill="#ECF3F8" opacity="1.000000" stroke="none" 
	d="
M96.770248,98.233704 
	C96.919334,98.486145 96.759506,98.707779 96.323395,98.949547 
	C96.120850,98.694527 96.258926,98.438934 96.770248,98.233704 
z"/>
<path fill="#FDFEFE" opacity="1.000000" stroke="none" 
	d="
M63.420990,132.640579 
	C62.654800,131.958923 62.345261,131.299042 62.022659,130.362427 
	C65.749680,129.978180 69.489761,129.870682 73.614700,129.884705 
	C73.478943,130.772537 72.958313,131.538834 72.233521,132.523132 
	C69.312111,132.714874 66.594879,132.688614 63.420990,132.640579 
z"/>
<path fill="#E5EDF3" opacity="1.000000" stroke="none" 
	d="
M80.670624,123.184090 
	C80.139427,123.670387 79.270309,124.114670 78.213478,124.312820 
	C78.794746,123.758484 79.563728,123.450272 80.670624,123.184090 
z"/>
<path fill="#ECF3F8" opacity="1.000000" stroke="none" 
	d="
M102.249306,102.849594 
	C102.282509,102.695114 102.556534,102.627533 102.913712,102.711418 
	C102.827950,102.887413 102.659035,102.911957 102.249306,102.849594 
z"/>
<path fill="#ECF3F8" opacity="1.000000" stroke="none" 
	d="
M85.271149,117.954643 
	C85.221741,117.728325 85.441986,117.462997 85.917747,117.132339 
	C85.962440,117.349884 85.751617,117.632759 85.271149,117.954643 
z"/>
<path fill="#ECF3F8" opacity="1.000000" stroke="none" 
	d="
M91.239075,112.093277 
	C91.153580,111.894279 91.324638,111.577133 91.736191,111.128174 
	C91.816330,111.322624 91.655983,111.648872 91.239075,112.093277 
z"/>
<path fill="#FDFEFE" opacity="1.000000" stroke="none" 
	d="
M51.363834,131.940033 
	C50.563152,131.407181 50.074291,130.725586 49.241173,129.990509 
	C51.380207,128.018921 53.863506,126.100784 57.054428,124.163284 
	C59.481865,124.470169 61.201675,124.796425 62.921490,125.122681 
	C62.945740,125.541565 62.969990,125.960442 62.994804,126.694107 
	C62.656666,127.111908 62.317963,127.214912 61.382584,127.190628 
	C60.192192,127.309212 59.598473,127.555084 59.004757,127.800964 
	C56.561726,129.131073 54.118690,130.461182 51.363834,131.940033 
z"/>
<path fill="#E5EDF3" opacity="1.000000" stroke="none" 
	d="
M63.382439,125.084488 
	C61.201675,124.796425 59.481865,124.470169 57.389824,124.076225 
	C57.086590,123.839386 57.155582,123.670242 57.115536,123.249718 
	C59.634022,121.567307 62.105145,119.710831 65.143150,122.597900 
	C65.760834,123.184898 67.834618,122.239693 69.627647,121.994095 
	C70.770058,122.299095 71.521957,122.610817 72.599274,122.897018 
	C72.636024,123.574409 72.387619,124.864510 72.052353,124.887497 
	C69.325218,125.074432 66.581825,125.024269 63.382439,125.084488 
z"/>
<path fill="#E5EDF3" opacity="1.000000" stroke="none" 
	d="
M80.690247,127.034103 
	C77.889046,127.211006 74.614761,127.359451 70.955948,127.314026 
	C73.786667,127.081978 77.001923,127.043808 80.690247,127.034103 
z"/>
<path fill="#E5EDF3" opacity="1.000000" stroke="none" 
	d="
M103.771217,114.576965 
	C103.232834,114.822029 102.496140,114.856300 101.391235,114.862183 
	C101.872986,114.677917 102.722939,114.522049 103.771217,114.576965 
z"/>
<path fill="#FDFEFE" opacity="1.000000" stroke="none" 
	d="
M56.374626,133.985306 
	C55.923759,133.693619 55.772518,133.450912 55.363739,133.151245 
	C55.543266,132.704346 55.916164,132.354431 56.547703,131.957001 
	C57.488392,132.358780 58.170444,132.808075 58.882477,133.584442 
	C58.187786,133.939117 57.463104,133.966721 56.374626,133.985306 
z"/>
<path fill="#E5EDF3" opacity="1.000000" stroke="none" 
	d="
M59.330761,127.839539 
	C59.598473,127.555084 60.192192,127.309212 61.120544,127.129074 
	C60.855713,127.422592 60.256241,127.650360 59.330761,127.839539 
z"/>
</svg>